<svg width="16" height="16" viewBox="0 0 16 16" fill="none" xmlns="http://www.w3.org/2000/svg">
<path d="M15 11.2V0.8C15 0.3 14.7 0 14.2 0H4C2.3 0 1 1.3 1 3V13C1 14.7 2.3 16 4 16H14.2C14.6 16 15 15.7 15 15.2V14.7C15 14.5 14.9 14.3 14.7 14.1C14.6 13.6 14.6 12.2 14.7 11.8C14.9 11.7 15 11.5 15 11.2ZM5.5 4.5C5.5 4.22375 5.72375 4 6 4H7.5V2.5C7.5 2.22375 7.72375 2 8 2H9C9.27625 2 9.5 2.22375 9.5 2.5V4H11C11.2762 4 11.5 4.22375 11.5 4.5V5.5C11.5 5.77625 11.2762 6 11 6H9.5V9.5C9.5 9.77625 9.27625 10 9 10H8C7.72375 10 7.5 9.77625 7.5 9.5V6H6C5.72375 6 5.5 5.77625 5.5 5.5V4.5ZM12.9 14H4C3.4 14 3 13.6 3 13C3 12.4 3.5 12 4 12H12.9V14Z" fill="#14A800"/>
</svg>
