<svg width="56" height="56" viewBox="0 0 56 56" fill="none" xmlns="http://www.w3.org/2000/svg">
<circle cx="28" cy="28" r="28" fill="url(#paint0_linear_26_3210)"/>
<path d="M23.0404 19.6627L33.3861 18.5944M15.9078 14.0608C15.7395 12.1851 14.0068 10.7805 12.0975 11.0328C10.1882 11.201 8.7835 12.9169 9.02743 14.8178C9.19565 16.7019 10.9368 18.0982 12.8461 17.8458M17.3208 26.8963C17.1526 25.0037 15.4115 23.6159 13.5022 23.8514C11.6012 24.0196 10.1882 25.7439 10.4405 27.6364C10.6087 29.5289 12.2657 30.9168 14.1666 30.6813M18.5657 38.5794C18.3975 36.6868 16.6563 35.299 14.747 35.5345C12.8461 35.7027 11.433 37.427 11.6854 39.3195C11.8536 41.212 13.5863 42.5999 15.4956 42.3644M40.9394 5.6749C43.9253 5.6749 46.4066 8.06367 46.4907 11.0244L46.8272 41.2036C46.8272 44.1644 44.4216 46.6288 41.444 46.7129L22.0395 46.9653M17.0685 6.08705L36.2964 4.03472C39.2824 3.69828 42.016 5.84312 42.3524 8.88796L45.5823 38.9158C45.9188 41.8597 43.7571 44.5849 40.687 44.913L21.4591 46.9653C18.4816 47.3017 15.7395 45.1569 15.4031 42.112L12.1816 12.0842C11.8452 9.1403 14.0068 6.41508 17.0601 6.08705H17.0685ZM22.704 14.5655L32.5703 13.4889C34.5553 13.2365 36.3805 14.7253 36.5487 16.7019L36.8852 19.8141C37.1375 21.7991 35.6235 23.5991 33.6469 23.7673L23.8647 24.928C21.8797 25.1804 20.0545 23.6916 19.8862 21.715L19.5498 18.6028C19.2975 16.5337 20.7105 14.8178 22.6956 14.5655H22.704Z" stroke="#001E00" stroke-width="2" stroke-linecap="round"/>
<defs>
<linearGradient id="paint0_linear_26_3210" x1="28" y1="0" x2="28" y2="56" gradientUnits="userSpaceOnUse">
<stop stop-color="#60AED1" stop-opacity="0"/>
<stop offset="1" stop-color="#60AED1" stop-opacity="0.39"/>
</linearGradient>
</defs>
</svg>
