<svg width="16" height="16" viewBox="0 0 16 16" fill="none" xmlns="http://www.w3.org/2000/svg">
<g clip-path="url(#clip0_26_2691)">
<path d="M9.08094 6C8.45031 6 5.74281 6.06188 4 8.68594V6C4 4.34562 2.65438 3 1 3C0.447812 3 0 3.44781 0 4C0 4.55219 0.447812 5 1 5C1.55125 5 2 5.44875 2 6V14C2 15.1031 2.89687 16 4 16H9.5C9.77625 16 10 15.7762 10 15.5V15C10 14.4478 9.55219 14 9 14H8L12 11V15.5C12 15.7762 12.2238 16 12.5 16H13.5C13.7762 16 14 15.7762 14 15.5V9.05812C13.6784 9.14156 13.3472 9.2 13 9.2C11.0684 9.2 9.4525 7.82344 9.08094 6ZM14 3H12L10 1V5.2C10 6.85687 11.3431 8.2 13 8.2C14.6569 8.2 16 6.85687 16 5.2V1L14 3ZM11.75 5.5C11.4738 5.5 11.25 5.27625 11.25 5C11.25 4.72375 11.4738 4.5 11.75 4.5C12.0262 4.5 12.25 4.72375 12.25 5C12.25 5.27625 12.0262 5.5 11.75 5.5ZM14.25 5.5C13.9738 5.5 13.75 5.27625 13.75 5C13.75 4.72375 13.9738 4.5 14.25 4.5C14.5262 4.5 14.75 4.72375 14.75 5C14.75 5.27625 14.5262 5.5 14.25 5.5Z" fill="#14A800"/>
</g>
<defs>
<clipPath id="clip0_26_2691">
<rect width="16" height="16" fill="white"/>
</clipPath>
</defs>
</svg>
