<svg width="56" height="57" viewBox="0 0 56 57" fill="none" xmlns="http://www.w3.org/2000/svg">
<circle cx="28" cy="29" r="28" fill="url(#paint0_linear_26_3227)"/>
<g clip-path="url(#clip0_26_3227)">
<path d="M48 3.19995H8C5.79196 3.2026 4.00264 4.99191 4 7.19995V36C4.00264 38.208 5.79196 39.9973 8 40H32V44C32.0001 44.3235 32.195 44.6151 32.4939 44.7389C32.7928 44.8627 33.1368 44.7943 33.3656 44.5656L36 41.9312L38.6344 44.5656C38.8632 44.7943 39.2072 44.8627 39.5061 44.7389C39.805 44.6151 39.9999 44.3235 40 44V40H48C50.208 39.9973 51.9974 38.208 52 36V7.19995C51.9974 4.99191 50.208 3.2026 48 3.19995ZM29.848 18.852C29.7243 18.7949 29.6355 18.6821 29.6089 18.5486C29.5823 18.415 29.6212 18.2768 29.7136 18.1768C30.4294 17.3988 30.4294 16.2019 29.7136 15.424C29.6209 15.3238 29.5819 15.1853 29.6087 15.0514C29.6354 14.9176 29.7247 14.8048 29.8488 14.748C30.8071 14.302 31.2645 13.1967 30.9016 12.204C30.8544 12.0761 30.8712 11.9334 30.9468 11.8201C31.0225 11.7068 31.1478 11.6365 31.284 11.6312C32.3405 11.5868 33.1868 10.7404 33.2312 9.68395C33.2365 9.54759 33.3069 9.42204 33.4204 9.34635C33.5339 9.27065 33.6769 9.25399 33.8048 9.30155C34.7977 9.66233 35.9017 9.20509 36.3488 8.24795C36.4054 8.12405 36.518 8.03487 36.6516 8.00825C36.7852 7.98163 36.9234 8.0208 37.0232 8.11355C37.8015 8.82949 38.9985 8.82949 39.7768 8.11355C39.8768 8.02086 40.0152 7.98182 40.149 8.0086C40.2827 8.03537 40.3954 8.1247 40.452 8.24875C40.8982 9.20635 42.0027 9.66358 42.9952 9.30155C43.1231 9.25399 43.2661 9.27065 43.3796 9.34635C43.4931 9.42204 43.5635 9.54759 43.5688 9.68395C43.6137 10.7419 44.462 11.5888 45.52 11.632C45.6561 11.6371 45.7815 11.7071 45.8572 11.8204C45.9329 11.9336 45.9497 12.0762 45.9024 12.204C45.5392 13.1969 45.9971 14.3026 46.956 14.748C47.0797 14.805 47.1686 14.9178 47.1951 15.0513C47.2217 15.1849 47.1828 15.3231 47.0904 15.4232C46.3746 16.2011 46.3746 17.398 47.0904 18.176C47.1831 18.2761 47.2221 18.4146 47.1953 18.5485C47.1686 18.6823 47.0793 18.7951 46.9552 18.852C45.9969 19.2979 45.5395 20.4032 45.9024 21.396C45.9496 21.5238 45.9328 21.6665 45.8572 21.7798C45.7815 21.8931 45.6562 21.9634 45.52 21.9688C44.4605 22.0113 43.6113 22.8604 43.5688 23.92C43.5635 24.0563 43.4931 24.1819 43.3796 24.2576C43.2661 24.3332 43.1231 24.3499 42.9952 24.3024C42.0023 23.9412 40.898 24.3985 40.4512 25.356C40.3967 25.481 40.2837 25.5709 40.1496 25.596C40.0157 25.6239 39.8765 25.5848 39.7768 25.4912C38.9984 24.7756 37.8016 24.7756 37.0232 25.4912C36.9234 25.5847 36.7843 25.6238 36.6504 25.596C36.5161 25.5709 36.4029 25.4811 36.348 25.356C35.9021 24.3981 34.7973 23.9407 33.8048 24.3032C33.6769 24.3507 33.5339 24.334 33.4204 24.2584C33.3069 24.1827 33.2365 24.0571 33.2312 23.9208C33.1887 22.8609 32.3398 22.0113 31.28 21.968C31.1439 21.9628 31.0185 21.8928 30.9428 21.7795C30.8671 21.6663 30.8503 21.5237 30.8976 21.396C31.2614 20.4041 30.8054 19.2988 29.848 18.852ZM38.6352 33.8336L38.4 34.0688V26.5488C38.5071 26.5485 38.6103 26.5888 38.6888 26.6616C39.0595 27.0091 39.5487 27.2024 40.0568 27.2024C40.1927 27.2021 40.3283 27.1887 40.4616 27.1624C41.0982 27.0381 41.635 26.6128 41.9016 26.0216C41.9953 25.8199 42.2281 25.7238 42.4368 25.8008C42.6802 25.887 42.938 25.9258 43.196 25.9152V34.0688L41.3616 32.2344C41.0492 31.922 40.5428 31.922 40.2304 32.2344L38.6352 33.8336ZM38.4 42.0688L36.5656 40.2344C36.2532 39.922 35.7468 39.922 35.4344 40.2344L33.6 42.0688V25.9136C33.8581 25.9243 34.1158 25.8855 34.3592 25.7992C34.5675 25.7218 34.8002 25.8176 34.8936 26.0192C35.161 26.6119 35.6998 27.0377 36.3384 27.1608C36.4903 27.1908 36.6452 27.204 36.8 27.2V36C36.8001 36.3235 36.995 36.6151 37.2939 36.7389C37.5928 36.8627 37.9368 36.7943 38.1656 36.5656L38.4 36.3312V42.0688ZM50.4 36C50.4 37.3254 49.3255 38.4 48 38.4H40V34.7312L40.8 33.9312L43.4344 36.5656C43.6632 36.7943 44.0072 36.8627 44.3061 36.7389C44.605 36.6151 44.7999 36.3235 44.8 36V25.0456C45.0233 24.732 45.1508 24.3605 45.1672 23.976C45.177 23.754 45.3549 23.5765 45.5768 23.5672C46.2254 23.5421 46.8227 23.2079 47.1832 22.6681C47.5437 22.1284 47.6237 21.4486 47.3984 20.84C47.322 20.6317 47.418 20.3997 47.6192 20.3064C48.2093 20.0353 48.6336 19.4977 48.7603 18.8609C48.8869 18.224 48.7006 17.565 48.2592 17.0888C48.1088 16.9253 48.1088 16.6738 48.2592 16.5104C48.7006 16.0343 48.887 15.3754 48.7603 14.7386C48.6336 14.1018 48.2092 13.5644 47.6192 13.2936C47.4174 13.2008 47.3209 12.9684 47.3976 12.76C47.6229 12.1513 47.5429 11.4715 47.1824 10.9318C46.8219 10.392 46.2246 10.0578 45.576 10.0328C45.3541 10.0234 45.1762 9.84586 45.1664 9.62395C45.1421 8.97516 44.8083 8.37735 44.2686 8.01645C43.7289 7.65555 43.0489 7.57533 42.44 7.80075C42.2317 7.87939 41.9981 7.78323 41.9056 7.58075C41.6345 6.99069 41.097 6.56637 40.4601 6.43969C39.8232 6.31301 39.1642 6.49934 38.688 6.94075C38.5248 7.09101 38.2736 7.09101 38.1104 6.94075C37.6343 6.49933 36.9754 6.31299 36.3386 6.43967C35.7019 6.56636 35.1645 6.99072 34.8936 7.58075C34.8007 7.78335 34.5671 7.87974 34.3584 7.80155C33.7495 7.57613 33.0695 7.65635 32.5298 8.01725C31.9901 8.37815 31.6563 8.97596 31.632 9.62475C31.6222 9.84666 31.4443 10.0242 31.2224 10.0336C30.5738 10.0586 29.9765 10.3928 29.616 10.9326C29.2555 11.4723 29.1755 12.1521 29.4008 12.7608C29.4772 12.969 29.3812 13.201 29.18 13.2944C28.5899 13.5654 28.1656 14.103 28.0389 14.7398C27.9123 15.3767 28.0986 16.0357 28.54 16.512C28.6904 16.6754 28.6904 16.9269 28.54 17.0904C28.0986 17.5664 27.9122 18.2253 28.0389 18.8621C28.1656 19.4989 28.59 20.0363 29.18 20.3072C29.3818 20.4 29.4783 20.6323 29.4016 20.8408C29.1763 21.4494 29.2563 22.1292 29.6168 22.6689C29.9773 23.2087 30.5746 23.5429 31.2232 23.568C31.4451 23.5773 31.623 23.7548 31.6328 23.9768C31.6493 24.361 31.7769 24.7323 32 25.0456V38.4H8C6.67452 38.4 5.6 37.3254 5.6 36V7.19995C5.6 5.87447 6.67452 4.79995 8 4.79995H48C49.3255 4.79995 50.4 5.87447 50.4 7.19995V36Z" fill="#001E00"/>
<path d="M12.8 32C11.4746 32 10.4 30.9255 10.4 29.6V13.6C10.4 12.2745 11.4746 11.2 12.8 11.2H27.2001C27.6419 11.2 28.0001 10.8418 28.0001 10.4C28.0001 9.95815 27.6419 9.59998 27.2001 9.59998H12.8C10.592 9.60262 8.80269 11.3919 8.80005 13.6V29.6C8.80269 31.808 10.592 33.5973 12.8 33.6H28.0001C28.4419 33.6 28.8001 33.2418 28.8001 32.8C28.8001 32.3581 28.4419 32 28.0001 32H12.8Z" fill="#001E00"/>
<path d="M13.6 22.3999H24.8C25.2419 22.3999 25.6 22.0418 25.6 21.5999C25.6 21.1581 25.2419 20.7999 24.8 20.7999H13.6C13.1582 20.7999 12.8 21.1581 12.8 21.5999C12.8 22.0418 13.1582 22.3999 13.6 22.3999Z" fill="#001E00"/>
<path d="M13.6 19.2H24.8C25.2419 19.2 25.6 18.8418 25.6 18.4C25.6 17.9581 25.2419 17.6 24.8 17.6H13.6C13.1582 17.6 12.8 17.9581 12.8 18.4C12.8 18.8418 13.1582 19.2 13.6 19.2Z" fill="#001E00"/>
<path d="M13.6 15.9999H24.8C25.2419 15.9999 25.6 15.6417 25.6 15.1999C25.6 14.7581 25.2419 14.3999 24.8 14.3999H13.6C13.1582 14.3999 12.8 14.7581 12.8 15.1999C12.8 15.6417 13.1582 15.9999 13.6 15.9999Z" fill="#001E00"/>
<path d="M12.8664 29.92C12.9937 30.2117 13.2818 30.4002 13.6 30.4C13.7102 30.4005 13.8192 30.3779 13.92 30.3336C14.6607 30.0584 15.3413 29.6431 15.9248 29.1104C16.1414 28.8942 16.3308 28.6525 16.4888 28.3904C16.7943 28.7338 17.1534 29.0256 17.552 29.2544C18.108 29.6179 18.8001 29.7064 19.4296 29.4944C19.671 29.4007 19.8893 29.2561 20.0696 29.0704C20.4316 29.2966 20.8305 29.4577 21.248 29.5464L21.8528 29.6896C23.0873 30.0512 24.37 30.2212 25.656 30.1936C25.9411 30.173 26.1936 30.0019 26.3183 29.7447C26.443 29.4875 26.4211 29.1833 26.2607 28.9467C26.1003 28.7101 25.8259 28.577 25.5408 28.5976C24.4186 28.6123 23.3007 28.4558 22.2256 28.1336L21.6072 27.9872C20.8608 27.8152 20.6688 27.5144 20.5896 27.3024C20.4502 26.9302 20.0587 26.7168 19.6703 26.8013C19.2819 26.8858 19.0145 27.2427 19.0424 27.6392C19.0514 27.7826 18.9834 27.92 18.864 28C18.6771 28.0238 18.4882 27.9751 18.336 27.864C17.6891 27.4612 17.2025 26.8457 16.96 26.1232C16.8224 25.7512 16.4329 25.5362 16.0448 25.618C15.6566 25.6998 15.387 26.0537 15.4112 26.4496C15.4247 27.0219 15.2005 27.5742 14.792 27.9752C14.3478 28.3637 13.835 28.6659 13.28 28.8664C13.0854 28.9512 12.9325 29.1099 12.8549 29.3075C12.7773 29.5051 12.7815 29.7254 12.8664 29.92Z" fill="#001E00"/>
<path d="M38.4 23.1999C41.9346 23.1999 44.8 20.3345 44.8 16.7999C44.8 13.2653 41.9346 10.3999 38.4 10.3999C34.8654 10.3999 32 13.2653 32 16.7999C32.004 20.3329 34.867 23.1959 38.4 23.1999ZM38.4 11.9999C41.051 11.9999 43.2 14.1489 43.2 16.7999C43.2 19.4509 41.051 21.5999 38.4 21.5999C35.749 21.5999 33.6 19.4509 33.6 16.7999C33.6026 14.15 35.7501 12.0025 38.4 11.9999Z" fill="#001E00"/>
</g>
<defs>
<linearGradient id="paint0_linear_26_3227" x1="28" y1="1" x2="28" y2="57" gradientUnits="userSpaceOnUse">
<stop stop-color="#60AED1" stop-opacity="0"/>
<stop offset="1" stop-color="#60AED1" stop-opacity="0.39"/>
</linearGradient>
<clipPath id="clip0_26_3227">
<rect width="48" height="48" fill="white" transform="translate(4)"/>
</clipPath>
</defs>
</svg>
