<svg width="16" height="16" viewBox="0 0 16 16" fill="none" xmlns="http://www.w3.org/2000/svg">
<g clip-path="url(#clip0_137_111)">
<path d="M8.00002 0.666748C6.54963 0.666748 5.1318 1.09684 3.92584 1.90264C2.71988 2.70843 1.77995 3.85374 1.22491 5.19374C0.669864 6.53373 0.52464 8.00822 0.807598 9.43074C1.09056 10.8533 1.78899 12.1599 2.81457 13.1855C3.84016 14.2111 5.14683 14.9095 6.56936 15.1925C7.99189 15.4755 9.46638 15.3302 10.8064 14.7752C12.1464 14.2202 13.2917 13.2802 14.0975 12.0743C14.9033 10.8683 15.3334 9.45048 15.3334 8.00008C15.3311 6.05586 14.5577 4.19194 13.1829 2.81717C11.8082 1.4424 9.94424 0.669042 8.00002 0.666748ZM10.4714 10.4714C10.3463 10.5964 10.1768 10.6666 10 10.6666C9.82325 10.6666 9.65371 10.5964 9.52869 10.4714L7.52869 8.47141C7.40366 8.34642 7.3334 8.17688 7.33336 8.00008V4.00008C7.33336 3.82327 7.40359 3.6537 7.52862 3.52868C7.65364 3.40365 7.82321 3.33341 8.00002 3.33341C8.17683 3.33341 8.3464 3.40365 8.47143 3.52868C8.59645 3.6537 8.66669 3.82327 8.66669 4.00008V7.72408L10.4714 9.52875C10.5963 9.65377 10.6665 9.82331 10.6665 10.0001C10.6665 10.1769 10.5963 10.3464 10.4714 10.4714Z" fill="#001E00"/>
</g>
<defs>
<clipPath id="clip0_137_111">
<rect width="16" height="16" fill="white"/>
</clipPath>
</defs>
</svg>
