<svg width="16" height="16" viewBox="0 0 16 16" fill="none" xmlns="http://www.w3.org/2000/svg">
<g clip-path="url(#clip0_26_2707)">
<path d="M13.104 6.23723L12.8862 6.62956C12.8065 6.77498 12.6365 6.83533 12.4851 6.77772C12.1716 6.657 11.8847 6.48415 11.6323 6.26741C11.5101 6.16315 11.4783 5.97933 11.558 5.83666L11.7758 5.44432C11.5925 5.22483 11.449 4.96967 11.3534 4.69257H10.9151C10.7557 4.69257 10.6176 4.57459 10.591 4.40998C10.5379 4.08074 10.5352 3.73505 10.591 3.39209C10.6176 3.22748 10.7557 3.10676 10.9151 3.10676H11.3534C11.449 2.82965 11.5925 2.5745 11.7758 2.35501L11.558 1.96267C11.4783 1.82 11.5075 1.63618 11.6323 1.53192C11.8847 1.31518 12.1743 1.14233 12.4851 1.02161C12.6365 0.963993 12.8065 1.02435 12.8862 1.16976L13.104 1.5621C13.383 1.50997 13.6672 1.50997 13.9461 1.5621L14.164 1.16976C14.2437 1.02435 14.4137 0.963993 14.5651 1.02161C14.8785 1.14233 15.1654 1.31518 15.4178 1.53192C15.54 1.63618 15.5719 1.82 15.4922 1.96267L15.2744 2.35501C15.4577 2.5745 15.6011 2.82965 15.6967 3.10676H16.1351C16.2944 3.10676 16.4326 3.22473 16.4592 3.38935C16.5123 3.71859 16.5149 4.06428 16.4592 4.40723C16.4326 4.57185 16.2944 4.69257 16.1351 4.69257H15.6967C15.6011 4.96967 15.4577 5.22483 15.2744 5.44432L15.4922 5.83666C15.5719 5.97933 15.5427 6.16315 15.4178 6.26741C15.1654 6.48415 14.8759 6.657 14.5651 6.77772C14.4137 6.83533 14.2437 6.77498 14.164 6.62956L13.9461 6.23723C13.6699 6.28935 13.383 6.28935 13.104 6.23723ZM12.8251 4.62398C13.8478 5.43609 15.014 4.23164 14.2277 3.17535C13.205 2.36049 12.0388 3.56769 12.8251 4.62398ZM9.76219 8.84641L10.6574 9.30733C10.9257 9.46646 11.0426 9.80393 10.9363 10.1057C10.6999 10.7697 10.235 11.3788 9.80469 11.911C9.60812 12.1552 9.26809 12.2156 8.99978 12.0564L8.22675 11.5955C7.80172 11.9714 7.30761 12.2704 6.76835 12.4652V13.3871C6.76835 13.7054 6.54786 13.9797 6.24502 14.0346C5.59153 14.1498 4.90616 14.1553 4.22876 14.0346C3.92327 13.9797 3.69747 13.7081 3.69747 13.3871V12.4652C3.15821 12.2677 2.6641 11.9714 2.23907 11.5955L1.46604 12.0537C1.20039 12.2128 0.857705 12.1525 0.661127 11.9083C0.230779 11.376 -0.223478 10.7669 -0.459904 10.1057C-0.566162 9.80667 -0.449278 9.46921 -0.180974 9.30733L0.70363 8.84641C0.600028 8.27299 0.600028 7.68311 0.70363 7.10695L-0.180974 6.64328C-0.449278 6.48415 -0.568819 6.14669 -0.459904 5.84763C-0.223478 5.18368 0.230779 4.57459 0.661127 4.04233C0.857705 3.79815 1.19773 3.73779 1.46604 3.89692L2.23907 4.35785C2.6641 3.98197 3.15821 3.68292 3.69747 3.48812V2.56352C3.69747 2.24801 3.9153 1.97364 4.21814 1.91877C4.87163 1.80354 5.55966 1.79805 6.23706 1.91603C6.54255 1.9709 6.76835 2.24252 6.76835 2.56352V3.48538C7.30761 3.68292 7.80172 3.97923 8.22675 4.3551L8.99978 3.89418C9.26543 3.73505 9.60812 3.79541 9.80469 4.03959C10.235 4.57185 10.6866 5.18093 10.9231 5.84489C11.0293 6.14394 10.9257 6.48141 10.6574 6.64328L9.76219 7.10421C9.86579 7.68037 9.86579 8.27025 9.76219 8.84641ZM6.63818 9.42531C8.21081 7.31272 5.87578 4.90108 3.83029 6.52531C2.25766 8.63789 4.5927 11.0495 6.63818 9.42531ZM13.104 14.4379L12.8862 14.8302C12.8065 14.9756 12.6365 15.036 12.4851 14.9784C12.1716 14.8577 11.8847 14.6848 11.6323 14.4681C11.5101 14.3638 11.4783 14.18 11.558 14.0373L11.7758 13.645C11.5925 13.4255 11.449 13.1703 11.3534 12.8932H10.9151C10.7557 12.8932 10.6176 12.7753 10.591 12.6106C10.5379 12.2814 10.5352 11.9357 10.591 11.5928C10.6176 11.4282 10.7557 11.3074 10.9151 11.3074H11.3534C11.449 11.0303 11.5925 10.7752 11.7758 10.5557L11.558 10.1633C11.4783 10.0207 11.5075 9.83685 11.6323 9.73259C11.8847 9.51585 12.1743 9.343 12.4851 9.22228C12.6365 9.16467 12.8065 9.22503 12.8862 9.37044L13.104 9.76277C13.383 9.71065 13.6672 9.71065 13.9461 9.76277L14.164 9.37044C14.2437 9.22503 14.4137 9.16467 14.5651 9.22228C14.8785 9.343 15.1654 9.51585 15.4178 9.73259C15.54 9.83685 15.5719 10.0207 15.4922 10.1633L15.2744 10.5557C15.4577 10.7752 15.6011 11.0303 15.6967 11.3074H16.1351C16.2944 11.3074 16.4326 11.4254 16.4592 11.59C16.5123 11.9193 16.5149 12.265 16.4592 12.6079C16.4326 12.7725 16.2944 12.8932 16.1351 12.8932H15.6967C15.6011 13.1703 15.4577 13.4255 15.2744 13.645L15.4922 14.0373C15.5719 14.18 15.5427 14.3638 15.4178 14.4681C15.1654 14.6848 14.8759 14.8577 14.5651 14.9784C14.4137 15.036 14.2437 14.9756 14.164 14.8302L13.9461 14.4379C13.6699 14.49 13.383 14.49 13.104 14.4379ZM12.8251 12.8219C13.8478 13.634 15.014 12.4296 14.2277 11.3733C13.205 10.5612 12.0388 11.7656 12.8251 12.8219Z" fill="#14A800"/>
</g>
<defs>
<clipPath id="clip0_26_2707">
<rect width="16" height="16" fill="white"/>
</clipPath>
</defs>
</svg>
