<svg width="56" height="56" viewBox="0 0 56 56" fill="none" xmlns="http://www.w3.org/2000/svg">
<circle cx="28" cy="28" r="28" fill="url(#paint0_linear_20_27)"/>
<g clip-path="url(#clip0_20_27)">
<path d="M39.6299 23.2627C39.2135 23.3706 38.7885 23.1205 38.6807 22.7041C38.5728 22.2877 38.823 21.8627 39.2393 21.7549C39.6557 21.647 40.0807 21.8971 40.1886 22.3135C40.2965 22.7299 40.0463 23.1549 39.6299 23.2627Z" fill="#001E00"/>
<path d="M9.99509 34.024L15.7424 30.228L15.2063 28.1583C13.3158 20.8594 17.7156 13.3837 25.0145 11.4931L27.228 10.9198C27.874 10.7525 28.5212 10.637 29.1659 10.5659C29.8547 9.05571 32.3615 9.0617 34.2648 9.28648C36.4296 9.54182 37.7786 6.2 37.7786 6.2C39.7844 9.02478 38.2553 11.0785 37.0842 12.0971C40.3439 13.8363 42.8961 16.8781 43.8933 20.728L44.2933 22.2723L50.4852 27.012C50.753 27.2168 50.8797 27.5559 50.8132 27.8868C50.7459 28.2173 50.4966 28.4803 50.1703 28.5649L46.1072 29.6173C46.221 30.1411 46.3472 30.6612 46.471 31.1697C47.6165 35.8919 48.7997 40.7718 38.7124 43.6564L39.9386 48.3904L41.3337 48.4987C41.6085 48.5198 41.8576 48.6688 42.0071 48.9013L44.804 53.2582C45.0672 53.6676 44.9481 54.2124 44.5387 54.4755C44.4581 54.5273 44.3723 54.5641 44.2837 54.5871C43.9249 54.68 43.532 54.5384 43.3212 54.2096L40.7604 50.2211L20.8024 48.6721L22.5787 59.3789C22.6587 59.8588 22.3343 60.3093 21.8535 60.3926C21.3741 60.4718 20.92 60.1477 20.8406 59.6678L18.8795 47.8517C18.8352 47.5847 18.9162 47.3119 19.0993 47.1122C19.2829 46.9123 19.5476 46.8074 19.8172 46.8292L20.0475 46.8471L16.8832 34.6304L12.3541 37.6153C12.2722 37.6693 12.183 37.7088 12.0903 37.7328C11.9606 37.7664 11.8239 37.7702 11.6906 37.7429C11.4617 37.6954 11.2605 37.5581 11.1323 37.3627L9.74455 35.2424C9.478 34.8364 9.59063 34.2921 9.99509 34.024ZM21.9043 46.9906L38.0804 48.2461L36.7878 43.2557C36.6658 42.7843 36.949 42.3038 37.4198 42.1819C45.1588 40.1773 45.8989 37.4708 45.2681 33.8924L42.6264 34.5766C42.1556 34.6986 41.6747 34.416 41.5526 33.9447C41.4306 33.4733 41.7138 32.9928 42.1846 32.8709L44.8984 32.168C44.8524 31.976 44.8059 31.7824 44.7579 31.5855C44.5656 30.7938 44.3676 29.9756 44.2114 29.1357C44.1263 28.6808 44.4084 28.2377 44.8563 28.1216L47.9779 27.3131L42.981 23.4883C42.825 23.3686 42.7135 23.2003 42.6641 23.0098L42.1879 21.1716C40.541 14.813 34.0282 10.9805 27.6703 12.6273L25.4568 13.2006C19.0983 14.8476 15.2657 21.3603 16.9125 27.7183L17.297 29.2028L20.7972 26.8905C20.8985 26.7265 21.0051 26.5642 21.1378 26.4157C21.6722 25.8205 22.3895 25.4672 23.2021 25.3835L31.037 20.2562C31.1091 20.2091 31.1871 20.173 31.2699 20.1485L35.4879 18.9019C35.8514 18.7993 36.262 18.9392 36.4749 19.2646C36.6877 19.5899 36.6623 20.0163 36.4119 20.3142L33.5811 23.6812C33.5259 23.7471 33.4613 23.8045 33.3892 23.8517L27.6211 27.6258C27.7345 27.7778 27.8456 27.9329 27.9472 28.0977C28.2036 28.5112 28.076 29.0544 27.6625 29.3108C27.2477 29.5669 26.7056 29.4391 26.4494 29.0262C25.7685 27.9272 24.7703 27.2193 23.7782 27.1322C23.3919 27.0976 22.8465 27.1496 22.4491 27.5923C21.8627 28.2472 21.7944 29.6045 22.2628 31.3168C22.6464 32.7227 23.6589 34.3553 24.6882 34.6536C24.8562 34.7023 25.3684 34.8505 26.1172 34.167C26.4764 33.8391 27.0334 33.8648 27.3618 34.2238C27.6897 34.583 27.6641 35.1405 27.305 35.4684C26.7533 35.9716 26.2182 36.2431 25.7286 36.3699C25.1333 36.5241 24.6049 36.4638 24.1971 36.3461C22.5289 35.8627 21.2385 33.8931 20.6689 32.1368L18.4367 33.6074L21.9032 46.9909L21.9043 46.9906ZM26.3519 26.3497L32.3161 22.4471L33.1782 21.421L31.8934 21.8012L25.6407 25.8926C25.8864 26.0212 26.122 26.1787 26.3519 26.3497ZM12.122 35.6581L20.2645 30.292C20.226 29.9956 20.2066 29.696 20.2014 29.3946L11.6984 35.0111L12.122 35.6581Z" fill="#001E00"/>
</g>
<defs>
<linearGradient id="paint0_linear_20_27" x1="28" y1="0" x2="28" y2="56" gradientUnits="userSpaceOnUse">
<stop stop-color="#FFD546" stop-opacity="0"/>
<stop offset="1" stop-color="#FFD546" stop-opacity="0.82"/>
</linearGradient>
<clipPath id="clip0_20_27">
<rect width="48" height="48" fill="white" transform="translate(6 5)"/>
</clipPath>
</defs>
</svg>
