<svg width="16" height="16" viewBox="0 0 16 16" fill="none" xmlns="http://www.w3.org/2000/svg">
<path d="M13.2 13.2H2.8C2.58 13.2 2.4 13.38 2.4 13.6V14.4C2.4 14.62 2.58 14.8 2.8 14.8H13.2C13.42 14.8 13.6 14.62 13.6 14.4V13.6C13.6 13.38 13.42 13.2 13.2 13.2ZM14.8 5.2C14.1375 5.2 13.6 5.7375 13.6 6.4C13.6 6.5775 13.64 6.7425 13.71 6.895L11.9 7.98C11.515 8.21 11.0175 8.08 10.795 7.69L8.7575 4.125C9.025 3.905 9.2 3.575 9.2 3.2C9.2 2.5375 8.6625 2 8 2C7.3375 2 6.8 2.5375 6.8 3.2C6.8 3.575 6.975 3.905 7.2425 4.125L5.205 7.69C4.9825 8.08 4.4825 8.21 4.1 7.98L2.2925 6.895C2.36 6.745 2.4025 6.5775 2.4025 6.4C2.4025 5.7375 1.865 5.2 1.2025 5.2C0.54 5.2 0 5.7375 0 6.4C0 7.0625 0.5375 7.6 1.2 7.6C1.265 7.6 1.33 7.59 1.3925 7.58L3.2 12.4H12.8L14.6075 7.58C14.67 7.59 14.735 7.6 14.8 7.6C15.4625 7.6 16 7.0625 16 6.4C16 5.7375 15.4625 5.2 14.8 5.2Z" fill="#14A800"/>
</svg>
