<svg width="56" height="56" viewBox="0 0 56 56" fill="none" xmlns="http://www.w3.org/2000/svg">
<circle cx="28" cy="28" r="28" fill="url(#paint0_linear_26_3218)"/>
<g clip-path="url(#clip0_26_3218)">
<path d="M45.7293 16.813L40.2273 16.3478C37.8425 16.1462 37.8769 14.0078 37.9083 13.5861L38.3792 8.01686L45.7293 16.813ZM45.8645 35.3483L47.3613 37.1325L48.9686 18.1226L38.5764 5.68414L38.581 5.63037L38.5279 5.62588L37.693 4.62646L18.6181 3.01365C17.1753 2.89166 14.3729 3.54032 14.0914 6.86981L11.014 43.2663C10.8909 44.7226 11.5298 47.5493 14.8289 47.8283L42.0626 50.1309C43.5044 50.2528 46.3073 49.6038 46.5888 46.2742L46.7977 43.8037L45.301 42.0191L44.9528 46.1364C44.749 48.546 42.6251 48.5161 42.1993 48.4853L14.9681 46.1829C12.5828 45.9812 12.6192 43.8311 12.6509 43.4052L15.7283 7.00821C15.9322 4.59671 18.0593 4.62927 18.4789 4.65953L36.8744 6.21489L36.8834 6.22563L36.2728 13.4474C36.2538 13.6729 36.2613 13.9362 36.288 14.2126L20.9449 12.9154C20.4924 12.8771 20.0955 13.2151 20.0571 13.6694C20.0186 14.1236 20.3533 14.523 20.8057 14.5613L36.7785 15.9117C37.3044 16.9359 38.295 17.8421 40.0881 17.9937L47.2194 18.5966L47.2752 18.6631L45.8645 35.3483ZM26.4464 26.9082C26.4891 26.4034 26.58 25.9142 26.6937 25.4349L19.9347 24.8634C19.4822 24.8251 19.0853 25.1631 19.0469 25.6174C19.0084 26.0717 19.3431 26.4706 19.7956 26.5088L26.4411 27.0707C26.4448 27.0168 26.4417 26.9634 26.4464 26.9082ZM20.3006 20.5357L28.7992 21.2543C29.2783 20.6877 29.8181 20.1793 30.407 19.7321L20.4398 18.8894C19.9873 18.8511 19.5904 19.1891 19.5519 19.6439C19.5136 20.0976 19.8481 20.4975 20.3006 20.5357ZM27.1353 31.489L19.4296 30.8374C18.9771 30.7992 18.5802 31.1367 18.5417 31.5914C18.5034 32.0457 18.8379 32.4451 19.2904 32.4833L28.0306 33.2223C27.6781 32.677 27.3781 32.0972 27.1353 31.489ZM39.8745 38.5833L18.9244 36.8119C18.4719 36.7737 18.0751 37.1112 18.0367 37.5654C17.9982 38.0202 18.3328 38.4195 18.7852 38.4578L39.7358 40.2292C40.1883 40.2674 40.5852 39.93 40.6236 39.4752C40.662 39.021 40.327 38.6215 39.8745 38.5833ZM35.7921 35.0625C31.7845 34.7236 28.8016 31.1681 29.1425 27.1362C29.4834 23.1043 33.0209 20.0999 37.0286 20.4388C41.0362 20.7776 44.019 24.3338 43.6781 28.3652C43.3373 32.3966 39.7997 35.4013 35.7921 35.0625ZM52.14 44.2977L43.2162 33.6611C43.2016 33.6437 43.1833 33.6303 43.1677 33.6142C44.3619 32.2257 45.1533 30.4673 45.3193 28.5039C45.7371 23.5615 42.0807 19.2031 37.1681 18.7877C32.2556 18.3724 27.9193 22.0551 27.5014 26.9974C27.0835 31.9397 30.7399 36.2982 35.6525 36.7136C37.604 36.8786 39.4602 36.3889 41.0207 35.4381C41.0342 35.4559 41.0443 35.4762 41.0585 35.4931L49.9822 46.1302C50.2336 46.4299 50.5821 46.5986 50.9417 46.629C51.3013 46.6594 51.6732 46.5516 51.9713 46.2984C52.5671 45.7924 52.6428 44.8966 52.14 44.2977Z" fill="#001E00" stroke="#001E00" stroke-width="0.25"/>
<path d="M34.9143 31.6893C34.6778 31.6694 34.4462 31.5908 34.2837 31.3998L31.9049 28.5415C31.5798 28.1597 31.6244 27.632 32.0089 27.3102C32.3934 26.9884 32.9256 27.0333 33.2507 27.4151L35.0927 29.5785L40.4758 25.073C40.8603 24.7512 41.3926 24.7961 41.7176 25.178C42.0426 25.5598 41.9981 26.0875 41.6136 26.4092L35.5254 31.5048C35.3923 31.6707 35.1508 31.7093 34.9143 31.6893Z" fill="#001E00"/>
</g>
<defs>
<linearGradient id="paint0_linear_26_3218" x1="28" y1="0" x2="28" y2="56" gradientUnits="userSpaceOnUse">
<stop stop-color="#60AED1" stop-opacity="0"/>
<stop offset="1" stop-color="#60AED1" stop-opacity="0.39"/>
</linearGradient>
<clipPath id="clip0_26_3218">
<rect width="48" height="48" fill="white" transform="translate(8 3)"/>
</clipPath>
</defs>
</svg>
