<svg width="56" height="56" viewBox="0 0 56 56" fill="none" xmlns="http://www.w3.org/2000/svg">
<circle cx="28" cy="28" r="28" fill="url(#paint0_linear_20_36)"/>
<path d="M47.9701 41.6087L46.1166 25.3686L46.803 17.1457L44.9496 14.8844L44.8122 13.5825L41.929 11.3212L36.4371 4.74286V4.60582H36.3684L35.5446 3.57796L32.0434 3.30386L31.0824 2.5501L27.5126 2.96124L16.4601 2.0019C16.1168 2.0019 14.8811 1.93338 13.7141 2.61862C12.959 3.09829 12.4098 3.78352 12.1352 4.67434H12.0665C11.7233 4.74286 10.4876 4.94843 9.52648 5.83924C8.56542 6.73006 8.15353 7.96349 8.35947 9.40251L10.213 25.8483L8.84002 42.1569C8.70272 43.6645 9.38921 46.5425 12.753 46.8166H12.8217C13.3709 48.1871 14.6752 49.6261 17.2152 49.3519L28.1991 48.1185L39.8695 49.0778C40.0068 49.0778 40.0754 49.0778 40.2128 49.0778C41.5171 49.0778 43.5766 48.4611 44.2631 46.2684C44.3317 46.2684 44.469 46.2684 44.5377 46.1999C46.0479 45.9943 48.3134 44.6923 47.9701 41.6087ZM35.8192 12.6231L36.2997 7.27825L43.302 15.7752L38.0159 15.2955C35.7505 15.09 35.7505 13.0343 35.8192 12.6231ZM10.1443 9.19689C9.93843 7.4153 11.1054 6.79858 11.7919 6.59301L10.9682 16.5975L10.1443 9.19689ZM16.9407 47.5703C16.0482 47.7074 15.4303 47.4333 15.0185 47.0222L18.9314 47.3648L16.9407 47.5703ZM40.0068 47.2963L12.8217 45.0349C10.4876 44.8294 10.5563 42.7737 10.5563 42.3626L13.6455 6.11334C13.8514 4.05762 15.4303 3.85205 16.1168 3.85205C16.1855 3.85205 16.2542 3.85205 16.3228 3.85205L34.5835 5.4281L33.9656 12.5546C33.9656 12.7601 33.9656 12.9658 33.9656 13.2398L18.7255 11.9379C18.2449 11.8693 17.7644 12.2805 17.7644 12.7601C17.6958 13.2398 18.1077 13.7195 18.5882 13.7195L34.5149 15.09C35.1327 16.3234 36.2997 17.0087 37.8787 17.1457L44.9496 17.7624L42.6155 45.1035C42.4782 47.3648 40.4187 47.3648 40.0068 47.2963ZM44.5377 44.4182L45.3614 34.6193L46.1853 41.8143C46.3912 43.5274 45.2928 44.2127 44.5377 44.4182Z" fill="#001E00"/>
<path d="M40.1439 19.7488L18.2448 17.8301C17.6956 17.7616 17.2837 18.1727 17.2151 18.6524C17.1464 19.2006 17.5583 19.6117 18.0388 19.6802L39.9379 21.5989H40.0066C40.4871 21.5989 40.899 21.2563 40.9677 20.7081C41.105 20.2285 40.6931 19.7488 40.1439 19.7488Z" fill="#001E00"/>
<path d="M39.5261 25.711L17.6269 23.7924C17.0777 23.7238 16.6658 24.135 16.5972 24.6146C16.5285 25.1628 16.9405 25.5739 17.421 25.6425L39.3201 27.5612H39.3887C39.8693 27.5612 40.2812 27.2185 40.3498 26.6703C40.4185 26.2592 40.0066 25.7795 39.5261 25.711Z" fill="#001E00"/>
<path d="M38.9769 31.6031L17.0778 29.6845C16.5286 29.6159 16.1167 30.0271 16.0481 30.5067C15.9794 31.0549 16.3913 31.4661 16.8719 31.5346L38.771 33.4533H38.8396C39.3201 33.4533 39.7321 33.1107 39.8007 32.5625C39.8694 32.0828 39.5261 31.6031 38.9769 31.6031Z" fill="#001E00"/>
<path d="M38.4277 37.4967L16.5972 35.578C16.048 35.5095 15.6361 35.9206 15.5674 36.4003C15.4988 36.9484 15.9107 37.3596 16.3912 37.4282L38.2904 39.3468H38.359C38.8395 39.3468 39.2515 39.0042 39.3201 38.456C39.3888 37.9763 38.9769 37.4967 38.4277 37.4967Z" fill="#001E00"/>
<defs>
<linearGradient id="paint0_linear_20_36" x1="28" y1="0" x2="28" y2="56" gradientUnits="userSpaceOnUse">
<stop stop-color="#FFD546" stop-opacity="0"/>
<stop offset="1" stop-color="#FFD546" stop-opacity="0.82"/>
</linearGradient>
</defs>
</svg>
