<svg width="62" height="56" viewBox="0 0 62 56" fill="none" xmlns="http://www.w3.org/2000/svg">
<circle cx="28" cy="28" r="28" fill="url(#paint0_linear_20_55)"/>
<g clip-path="url(#clip0_20_55)">
<path d="M55.7977 22.9384L53.4157 23.2313C52.4103 23.3591 51.5937 24.1047 51.375 25.0943L50.7684 25.1689C49.363 25.2775 47.9505 25.0907 46.6216 24.6205L41.3336 23.2992L39.2597 6.43345C39.0979 5.11788 37.9003 4.18254 36.5847 4.34431L16.7342 6.78533C16.5282 6.81831 16.341 6.9243 16.2067 7.08394L9.24293 16.0005L9.24342 16.0045C9.11773 16.174 9.05758 16.3832 9.07405 16.5936L13.5655 53.1185C13.7273 54.434 14.9249 55.3694 16.2405 55.2076L42.4431 51.9855C43.7587 51.8237 44.694 50.6261 44.5323 49.3105L44.3213 47.5946C45.8587 47.1738 47.2783 46.404 48.4697 45.3451C48.9466 44.9235 49.5415 44.6588 50.1739 44.5866L53.7184 44.1507C54.1703 45.0578 55.1433 45.5833 56.1496 45.4638L58.5317 45.1709C59.8473 45.0091 60.7826 43.8115 60.6208 42.4959L58.4727 25.0275C58.3109 23.7119 57.1133 22.7766 55.7977 22.9384V22.9384ZM16.2735 9.59375L16.819 14.0291C16.8729 14.4677 16.5611 14.8669 16.1226 14.9208L11.6872 15.4662L16.2735 9.59375ZM47.4034 44.1527C46.4525 44.9893 45.3343 45.614 44.1233 45.9851L43.2629 38.9882C43.209 38.5497 42.8098 38.2379 42.3713 38.2919C41.9327 38.3458 41.621 38.745 41.6749 39.1835L42.9442 49.5058C42.9981 49.9443 42.6864 50.3435 42.2478 50.3974L16.0452 53.6196C15.6067 53.6735 15.2075 53.3617 15.1536 52.9232L10.7597 17.1923L16.3179 16.5088C17.6334 16.3471 18.5688 15.1494 18.407 13.8339L17.7235 8.27573L36.78 5.93235C37.2185 5.87843 37.6177 6.19021 37.6716 6.62873L39.6705 22.8839L36.6112 22.1196C34.7027 21.7027 32.8089 22.8796 32.3378 24.7754L30.2551 33.2449C29.945 34.4935 30.3246 35.8127 31.2509 36.7055C32.1771 37.5984 33.5094 37.9292 34.7457 37.5735C35.9821 37.2177 36.9347 36.2294 37.2448 34.9808L38.3503 30.5004L40.5697 31.2906C40.5606 33.0003 41.1756 34.6545 42.2993 35.9431C43.5619 37.1689 45.2799 37.8102 47.0369 37.7117C47.0698 37.7121 47.1027 37.7102 47.1354 37.706C47.5536 37.6528 47.8587 37.2842 47.8329 36.8635C47.8072 36.4427 47.4593 36.1142 47.0378 36.1124C45.7173 36.2016 44.4191 35.7389 43.4526 34.8348C42.5175 33.6905 42.0573 32.231 42.1669 30.7573C42.1568 30.4149 41.95 30.109 41.636 29.9722L38.0534 28.6959C37.8403 28.6309 37.61 28.6537 37.4138 28.7592C37.2176 28.8648 37.0717 29.0444 37.0086 29.258L35.6899 34.5997C35.4235 35.6719 34.3384 36.3252 33.2663 36.0588C32.1941 35.7925 31.5408 34.7074 31.8071 33.6352L33.8941 25.1482C34.1691 24.1154 35.1984 23.4733 36.247 23.6805L46.1981 26.1645C47.7279 26.6924 49.3512 26.8942 50.9637 26.7569L51.4242 26.7003L53.377 42.5807L49.9786 42.9986C49.0222 43.1102 48.1232 43.5131 47.4034 44.1527V44.1527ZM59.0328 42.6912C59.0867 43.1297 58.7749 43.5289 58.3364 43.5829L55.9543 43.8758C55.5158 43.9297 55.1166 43.6179 55.0627 43.1794L52.9146 25.711C52.8607 25.2725 53.1724 24.8732 53.611 24.8193L55.993 24.5264C56.4315 24.4725 56.8308 24.7843 56.8847 25.2228L59.0328 42.6912Z" fill="#001E00"/>
<path d="M15.3157 21.4682L20.0798 20.8824C20.5183 20.8285 20.8301 20.4293 20.7762 19.9907C20.7222 19.5522 20.323 19.2404 19.8845 19.2944L15.1204 19.8802C14.6819 19.9341 14.3701 20.3333 14.424 20.7719C14.4779 21.2104 14.8771 21.5222 15.3157 21.4682Z" fill="#001E00"/>
<path d="M23.2559 20.4918L35.9602 18.9296C36.3987 18.8757 36.7105 18.4764 36.6565 18.0379C36.6026 17.5994 36.2034 17.2876 35.7649 17.3415L23.0606 18.9038C22.6221 18.9577 22.3103 19.3569 22.3642 19.7955C22.4181 20.234 22.8173 20.5458 23.2559 20.4918Z" fill="#001E00"/>
<path d="M15.8039 25.4383L28.5082 23.8761C28.9467 23.8222 29.2585 23.4229 29.2045 22.9844C29.1506 22.5459 28.7514 22.2341 28.3129 22.288L15.6086 23.8503C15.1701 23.9042 14.8583 24.3034 14.9122 24.7419C14.9661 25.1805 15.3653 25.4923 15.8039 25.4383Z" fill="#001E00"/>
<path d="M16.2921 29.4084L21.0562 28.8226C21.4947 28.7687 21.8065 28.3694 21.7526 27.9309C21.6986 27.4924 21.2994 27.1806 20.8609 27.2345L16.0968 27.8204C15.6583 27.8743 15.3465 28.2735 15.4004 28.712C15.4543 29.1506 15.8535 29.4624 16.2921 29.4084Z" fill="#001E00"/>
<path d="M29.2219 26.2064L24.037 26.844C23.5985 26.8979 23.2867 27.2971 23.3406 27.7356C23.3945 28.1742 23.7937 28.4859 24.2323 28.432L29.4172 27.7944C29.8557 27.7405 30.1675 27.3413 30.1136 26.9028C30.0597 26.4642 29.6604 26.1525 29.2219 26.2064Z" fill="#001E00"/>
<path d="M16.7803 33.3785L28.3888 31.951C28.8274 31.8971 29.1391 31.4979 29.0852 31.0594C29.0313 30.6208 28.6321 30.3091 28.1935 30.363L16.585 31.7905C16.1465 31.8444 15.8347 32.2436 15.8886 32.6821C15.9425 33.1207 16.3417 33.4324 16.7803 33.3785V33.3785Z" fill="#001E00"/>
<path d="M17.2685 37.3486L22.0326 36.7628C22.4711 36.7089 22.7829 36.3096 22.729 35.8711C22.675 35.4326 22.2758 35.1208 21.8373 35.1747L17.0732 35.7606C16.6347 35.8145 16.3229 36.2137 16.3768 36.6522C16.4307 37.0908 16.83 37.4025 17.2685 37.3486Z" fill="#001E00"/>
<path d="M25.0134 34.7842C24.5749 34.8381 24.2631 35.2373 24.317 35.6758C24.3709 36.1144 24.7701 36.4261 25.2087 36.3722L27.956 36.0344C28.3945 35.9804 28.7063 35.5812 28.6524 35.1427C28.5984 34.7042 28.1992 34.3924 27.7607 34.4463L25.0134 34.7842Z" fill="#001E00"/>
<path d="M17.7567 41.3187L30.3339 39.7721C30.7725 39.7182 31.0842 39.319 31.0303 38.8804C30.9764 38.4419 30.5772 38.1301 30.1387 38.184L17.5614 39.7307C17.1229 39.7846 16.8111 40.1838 16.865 40.6223C16.9189 41.0609 17.3182 41.3726 17.7567 41.3187Z" fill="#001E00"/>
<path d="M18.2449 45.2888L23.009 44.703C23.4475 44.649 23.7593 44.2498 23.7054 43.8113C23.6515 43.3728 23.2522 43.061 22.8137 43.1149L18.0496 43.7008C17.6111 43.7547 17.2993 44.1539 17.3532 44.5924C17.4072 45.031 17.8064 45.3427 18.2449 45.2888Z" fill="#001E00"/>
<path d="M38.6941 41.1621L25.9898 42.7244C25.5513 42.7783 25.2395 43.1775 25.2934 43.616C25.3473 44.0546 25.7465 44.3663 26.1851 44.3124L38.8894 42.7502C39.3279 42.6962 39.6397 42.297 39.5858 41.8585C39.5318 41.42 39.1326 41.1082 38.6941 41.1621Z" fill="#001E00"/>
<path d="M39.1823 45.1322L34.4182 45.7181C33.9797 45.772 33.6679 46.1712 33.7218 46.6097C33.7757 47.0482 34.1749 47.36 34.6135 47.3061L39.3776 46.7203C39.8161 46.6663 40.1279 46.2671 40.074 45.8286C40.02 45.3901 39.6208 45.0783 39.1823 45.1322Z" fill="#001E00"/>
<path d="M31.2421 46.1086L18.5378 47.6709C18.0993 47.7248 17.7875 48.124 17.8414 48.5625C17.8954 49.0011 18.2946 49.3128 18.7331 49.2589L31.4374 47.6967C31.8759 47.6427 32.1877 47.2435 32.1338 46.805C32.0798 46.3665 31.6806 46.0547 31.2421 46.1086Z" fill="#001E00"/>
</g>
<defs>
<linearGradient id="paint0_linear_20_55" x1="28" y1="0" x2="28" y2="56" gradientUnits="userSpaceOnUse">
<stop stop-color="#FFD546" stop-opacity="0"/>
<stop offset="1" stop-color="#FFD546" stop-opacity="0.82"/>
</linearGradient>
<clipPath id="clip0_20_55">
<rect width="48" height="48" fill="white" transform="translate(8 7.85938) rotate(-7.01047)"/>
</clipPath>
</defs>
</svg>
