<svg width="16" height="16" viewBox="0 0 16 16" fill="none" xmlns="http://www.w3.org/2000/svg">
<path d="M12.7096 12.9302C12.6685 12.723 12.4647 12.5904 12.2588 12.6374C11.9247 12.7136 11.4019 12.8065 10.8393 12.8065C9.06541 12.8065 7.65397 11.7193 7.04359 10.1362H10.5964C10.6815 10.1362 10.7642 10.1073 10.8307 10.054C10.8972 10.0008 10.9436 9.92657 10.9623 9.84347L11.1614 8.95722C11.2141 8.72278 11.0358 8.5 10.7955 8.5H6.60063C6.56281 8.05225 6.55644 7.61603 6.60491 7.17984H11.1859C11.2715 7.17985 11.3544 7.15061 11.4211 7.09699C11.4877 7.04337 11.534 6.96858 11.5523 6.88503L11.7558 5.95519C11.807 5.72131 11.6289 5.5 11.3894 5.5H7.06825C7.71303 4.09403 9.02731 3.15531 10.7438 3.15531C11.1965 3.15531 11.6365 3.22563 11.9267 3.28484C12.1209 3.32447 12.3125 3.20678 12.3643 3.01537L12.739 1.62888C12.7959 1.41822 12.6619 1.20338 12.4475 1.16272C12.0693 1.091 11.4597 1 10.8011 1C7.76409 1 5.31344 2.88287 4.40859 5.5H3.375C3.16791 5.5 3 5.66791 3 5.875V6.80484C3 7.01194 3.16791 7.17984 3.375 7.17984H4.04903C4.0175 7.60506 4.01213 8.09506 4.04338 8.5H3.375C3.16791 8.5 3 8.66791 3 8.875V9.76125C3 9.96834 3.16791 10.1362 3.375 10.1362H4.31606C5.09809 12.9591 7.5395 15 10.8011 15C11.623 15 12.3187 14.858 12.7105 14.7566C12.9032 14.7068 13.0238 14.5157 12.9851 14.3205L12.7096 12.9302Z" fill="#14A800"/>
</svg>
