<svg width="16" height="16" viewBox="0 0 16 16" fill="none" xmlns="http://www.w3.org/2000/svg">
<path d="M11.5556 16H2.66671C1.95437 16 1.28473 15.7226 0.781084 15.2189C0.277439 14.7152 6.10352e-05 14.0456 6.10352e-05 13.3333V4.44444C6.10352e-05 3.73213 0.27747 3.06249 0.781115 2.55884C1.28476 2.0552 1.9544 1.77779 2.66674 1.77779H6.22229C6.71323 1.77779 7.11118 2.17574 7.11118 2.66668C7.11118 3.15763 6.71323 3.55558 6.22229 3.55558H2.66671C2.42927 3.55558 2.20607 3.64805 2.03821 3.81591C1.87035 3.98377 1.77785 4.20699 1.77785 4.44444V13.3333C1.77785 13.5708 1.87032 13.794 2.03821 13.9619C2.20607 14.1297 2.42927 14.2222 2.66671 14.2222H11.5556C11.793 14.2222 12.0162 14.1297 12.1841 13.9618C12.352 13.794 12.4444 13.5707 12.4444 13.3333V9.77777C12.4444 9.28683 12.8424 8.88891 13.3333 8.88891C13.8243 8.88891 14.2223 9.28686 14.2223 9.77777V13.3333C14.2223 14.0456 13.9449 14.7152 13.4412 15.2189C12.9375 15.7226 12.2678 16 11.5556 16ZM6.22229 10.6666C5.99478 10.6666 5.7673 10.5799 5.59376 10.4063C5.24664 10.0592 5.24664 9.49633 5.59376 9.14921L12.9651 1.77779H9.77783C9.28689 1.77779 8.88897 1.37984 8.88897 0.888894C8.88897 0.397948 9.28689 0 9.77783 0H15.1112C15.2341 0 15.3512 0.0249649 15.4577 0.0700819C15.5571 0.112125 15.6504 0.173047 15.7321 0.252878C15.7321 0.25291 15.7321 0.25291 15.7322 0.252941C15.7327 0.253531 15.7333 0.254089 15.7339 0.254679C15.734 0.254835 15.7343 0.255021 15.7344 0.255176C15.7349 0.255611 15.7354 0.256077 15.7358 0.256543C15.7361 0.256853 15.7364 0.257132 15.7367 0.257443C15.737 0.257785 15.7374 0.258157 15.7377 0.258437C15.7383 0.259058 15.739 0.25971 15.7396 0.260362C15.7402 0.260983 15.7409 0.261666 15.7415 0.262287C15.7419 0.262597 15.7422 0.263001 15.7425 0.263281C15.7428 0.263591 15.7431 0.263871 15.7434 0.264181C15.7439 0.264647 15.7443 0.265082 15.7448 0.265578C15.7449 0.265703 15.7451 0.26592 15.7453 0.266075C15.7458 0.266665 15.7464 0.267255 15.747 0.267845C15.747 0.267876 15.747 0.267876 15.7471 0.267907C15.8269 0.349633 15.8878 0.442972 15.9298 0.542335C15.9749 0.64884 15.9999 0.765901 15.9999 0.888863V6.2222C15.9999 6.71314 15.602 7.11109 15.111 7.11109C14.6201 7.11109 14.2221 6.71314 14.2221 6.2222V3.03488L6.85067 10.4063C6.67725 10.5799 6.44977 10.6666 6.22229 10.6666Z" fill="#14A800"/>
</svg>
