<svg width="24" height="24" viewBox="0 0 24 24" fill="none" xmlns="http://www.w3.org/2000/svg">
<rect x="0.5" y="0.5" width="23" height="23" stroke="white"/>
<path d="M10.848 12.624C10.812 12.624 10.02 12.624 9.66 12.624C9.468 12.624 9.408 12.552 9.408 12.372C9.408 11.892 9.408 11.4 9.408 10.92C9.408 10.728 9.48 10.668 9.66 10.668H10.848C10.848 10.632 10.848 9.936 10.848 9.612C10.848 9.132 10.932 8.676 11.172 8.256C11.424 7.824 11.784 7.536 12.24 7.368C12.54 7.26 12.84 7.212 13.164 7.212H14.34C14.508 7.212 14.58 7.284 14.58 7.452V8.82C14.58 8.988 14.508 9.06 14.34 9.06C14.016 9.06 13.692 9.06 13.368 9.072C13.044 9.072 12.876 9.228 12.876 9.564C12.864 9.924 12.876 10.272 12.876 10.644H14.268C14.46 10.644 14.532 10.716 14.532 10.908V12.36C14.532 12.552 14.472 12.612 14.268 12.612C13.836 12.612 12.912 12.612 12.876 12.612V16.524C12.876 16.728 12.816 16.8 12.6 16.8C12.096 16.8 11.604 16.8 11.1 16.8C10.92 16.8 10.848 16.728 10.848 16.548C10.848 15.288 10.848 12.66 10.848 12.624V12.624Z" fill="white"/>
</svg>
