<svg width="16" height="16" viewBox="0 0 16 16" fill="none" xmlns="http://www.w3.org/2000/svg">
<g clip-path="url(#clip0_26_2681)">
<path d="M16 0C14.3818 0.11125 3.01372 1.19375 2.21903 8.98781C2.12247 9.82094 2.06778 10.6578 2.03184 11.4953L7.62153 5.91125C7.81684 5.71594 8.13403 5.71594 8.32934 5.91125C8.52465 6.10656 8.52465 6.42312 8.32934 6.61844L0.219966 14.7197C-0.0731592 15.0125 -0.0731592 15.4875 0.219966 15.7803C0.513091 16.0731 0.988403 16.0731 1.28184 15.7803L3.06715 13.9969C4.38247 13.9925 5.69684 13.9178 7.0034 13.7669C8.67465 13.5969 10.0353 12.9397 11.1465 12H7.99184L12.579 10.4725C12.9306 10.0072 13.2468 9.51281 13.5306 9H10.995L14.3243 7.33719C15.634 4.15187 15.9434 0.820625 16 0Z" fill="#14A800"/>
</g>
<defs>
<clipPath id="clip0_26_2681">
<rect width="16" height="16" fill="white"/>
</clipPath>
</defs>
</svg>
