<svg width="16" height="16" viewBox="0 0 16 16" fill="none" xmlns="http://www.w3.org/2000/svg">
<path d="M14.662 12.6094L10.9995 6.71875V2H11.2495C11.6651 2 11.9995 1.66562 11.9995 1.25V0.75C11.9995 0.334375 11.6651 0 11.2495 0H4.74946C4.33384 0 3.99946 0.334375 3.99946 0.75V1.25C3.99946 1.66562 4.33384 2 4.74946 2H4.99946V6.71875L1.33696 12.6094C0.421338 14.0813 1.47759 16 3.21509 16H12.7838C14.5245 16 15.5776 14.0781 14.662 12.6094ZM5.30884 10L6.81509 7.575C6.93071 7.4125 6.99634 7.2125 6.99634 7V2H8.99634V7C8.99634 7.21562 9.06509 7.4125 9.17759 7.575L10.6838 10H5.30884Z" fill="#14A800"/>
</svg>
