<svg width="16" height="16" viewBox="0 0 16 16" fill="none" xmlns="http://www.w3.org/2000/svg">
<g clip-path="url(#clip0_26_2705)">
<path d="M7.75 0C3.46969 0 0 3.46969 0 7.75C0 12.0303 3.46969 15.5 7.75 15.5C12.0303 15.5 15.5 12.0303 15.5 7.75C15.5 3.46969 12.0303 0 7.75 0ZM10.3216 11.175C10.1997 11.2963 10.0719 11.4234 9.96813 11.5275C9.87469 11.6213 9.80875 11.7369 9.77531 11.8622C9.72812 12.0391 9.69 12.2178 9.62625 12.3894L9.08281 13.8534C8.65281 13.9472 8.20781 14 7.75 14V13.1444C7.80281 12.75 7.51125 12.0112 7.04281 11.5428C6.85531 11.3553 6.75 11.1009 6.75 10.8356V9.83531C6.75 9.47156 6.55406 9.13719 6.23562 8.96125C5.78656 8.71281 5.14781 8.36562 4.71031 8.14531C4.35156 7.96469 4.01969 7.73469 3.72125 7.46562L3.69625 7.44312C3.48283 7.25048 3.29335 7.03288 3.13188 6.795C2.83875 6.36469 2.36125 5.65688 2.05094 5.19688C2.69062 3.775 3.84344 2.63313 5.27594 2.01281L6.02625 2.38812C6.35875 2.55437 6.75 2.31281 6.75 1.94094V1.58781C6.99969 1.5475 7.25375 1.52188 7.51219 1.51219L8.39656 2.39656C8.59188 2.59188 8.59188 2.90844 8.39656 3.10375L8.25 3.25L7.92688 3.57312C7.82938 3.67062 7.82938 3.82906 7.92688 3.92656L8.07344 4.07312C8.17094 4.17062 8.17094 4.32906 8.07344 4.42656L7.82344 4.67656C7.7765 4.72341 7.71288 4.74971 7.64656 4.74969H7.36562C7.30062 4.74969 7.23812 4.775 7.19125 4.82062L6.88125 5.12219C6.84325 5.15919 6.81799 5.20731 6.80912 5.2596C6.80024 5.3119 6.80821 5.36566 6.83187 5.41313L7.31906 6.38781C7.40219 6.55406 7.28125 6.74969 7.09562 6.74969H6.91937C6.85906 6.74969 6.80094 6.72781 6.75562 6.68844L6.46562 6.43656C6.4 6.37963 6.32069 6.34076 6.23548 6.32378C6.15028 6.30679 6.06213 6.31227 5.97969 6.33969L5.00562 6.66437C4.93126 6.68917 4.86658 6.73674 4.82076 6.80034C4.77493 6.86395 4.75029 6.94036 4.75031 7.01875C4.75031 7.16031 4.83031 7.28937 4.95687 7.35281L5.30312 7.52594C5.59719 7.67313 5.92156 7.74969 6.25031 7.74969C6.57906 7.74969 6.95625 8.6025 7.25031 8.74969H9.33625C9.60156 8.74969 9.85563 8.855 10.0434 9.0425L10.4712 9.47031C10.65 9.64911 10.7504 9.89157 10.7503 10.1444C10.7502 10.3359 10.7123 10.5256 10.6388 10.7025C10.5652 10.8793 10.4574 11.0399 10.3216 11.175ZM13.0312 8.32031C12.8503 8.275 12.6925 8.16406 12.5891 8.00875L12.0272 7.16594C11.945 7.0428 11.9011 6.89806 11.9011 6.75C11.9011 6.60194 11.945 6.4572 12.0272 6.33406L12.6394 5.41594C12.7119 5.3075 12.8113 5.21938 12.9281 5.16125L13.3337 4.95844C13.7562 5.79969 14 6.74594 14 7.75C14 8.02094 13.9769 8.28625 13.9431 8.54813L13.0312 8.32031Z" fill="#14A800"/>
</g>
<defs>
<clipPath id="clip0_26_2705">
<rect width="16" height="16" fill="white"/>
</clipPath>
</defs>
</svg>
