<svg width="16" height="16" viewBox="0 0 16 16" fill="none" xmlns="http://www.w3.org/2000/svg">
<path d="M15.5584 5.32297L8.58491 3.09121C8.20491 2.9696 7.7949 2.9696 7.41515 3.09121L0.441377 5.32297C-0.147126 5.51125 -0.147126 6.32192 0.441377 6.5102L1.65713 6.89926C1.39038 7.24275 1.22638 7.66175 1.21013 8.1206C0.969379 8.26435 0.799878 8.52373 0.799878 8.83336C0.799878 9.11409 0.941879 9.35028 1.14638 9.50132L0.508127 12.493C0.452627 12.7531 0.642627 13 0.898378 13H2.30113C2.55714 13 2.74714 12.7531 2.69164 12.493L2.05338 9.50132C2.25788 9.35028 2.39988 9.11409 2.39988 8.83336C2.39988 8.53206 2.23813 8.27998 2.00838 8.13363C2.02738 7.74248 2.21938 7.39665 2.52563 7.17738L7.4149 8.74222C7.6414 8.81461 8.07591 8.90497 8.58466 8.74222L15.5584 6.51046C16.1472 6.32192 16.1472 5.51151 15.5584 5.32297ZM8.81966 9.53882C8.10641 9.76695 7.49865 9.64091 7.1799 9.53882L3.55439 8.37868L3.19989 11.3333C3.19989 12.2539 5.3489 13 7.99991 13C10.6509 13 12.7999 12.2539 12.7999 11.3333L12.4454 8.37842L8.81966 9.53882Z" fill="#14A800"/>
</svg>
