<svg width="16" height="16" viewBox="0 0 16 16" fill="none" xmlns="http://www.w3.org/2000/svg">
<g clip-path="url(#clip0_26_2661)">
<path d="M6.52006 8.70031C5.80431 8.12681 4.97006 7.82381 4.11006 7.82381C2.17506 7.82381 0.536808 9.39181 0.0358081 11.7253C-0.0529419 12.1403 0.0250581 12.5711 0.250058 12.9078C0.468808 13.2356 0.795808 13.4238 1.14706 13.4238H14.8001C12.2198 13.4238 10.9251 12.4971 8.97031 10.8123L6.52006 8.70031ZM12.3863 8.24306L11.7101 4.32881C11.6737 4.11641 11.5947 3.91355 11.478 3.7324C11.3613 3.55125 11.2092 3.39555 11.0308 3.27464C10.8524 3.15372 10.6515 3.07008 10.44 3.02874C10.2285 2.9874 10.0108 2.98921 9.80006 3.03406L5.02131 4.04881C4.69122 4.11886 4.39174 4.29147 4.16566 4.54197C3.93958 4.79248 3.79849 5.10804 3.76256 5.44356L3.59031 7.07381C3.76281 7.05306 3.93281 7.02381 4.11006 7.02381C5.15481 7.02381 6.16006 7.38756 7.04231 8.09431L9.49231 10.2063C11.2691 11.7373 12.3726 12.6238 14.8001 12.6238C15.1183 12.6238 15.4235 12.4974 15.6486 12.2723C15.8736 12.0473 16.0001 11.7421 16.0001 11.4238C16.0001 10.7891 15.2601 8.44056 12.3863 8.24306Z" fill="#14A800"/>
</g>
<defs>
<clipPath id="clip0_26_2661">
<rect width="16" height="16" fill="white"/>
</clipPath>
</defs>
</svg>
