<svg width="16" height="16" viewBox="0 0 16 16" fill="none" xmlns="http://www.w3.org/2000/svg">
<path d="M15.5556 2.75C15.8011 2.75 16 2.55422 16 2.3125V1.4375C16 1.19578 15.8011 1 15.5556 1H0.444444C0.198889 1 0 1.19578 0 1.4375V2.3125C0 2.55422 0.198889 2.75 0.444444 2.75H0.888333V13.25H0.444444C0.198889 13.25 0 13.4458 0 13.6875V14.5625C0 14.8042 0.198889 15 0.444444 15H7.11111V12.8125C7.11111 12.5719 7.31111 12.375 7.55556 12.375H8.44444C8.68889 12.375 8.88889 12.5719 8.88889 12.8125V15H15.5556C15.8011 15 16 14.8042 16 14.5625V13.6875C16 13.4458 15.8011 13.25 15.5556 13.25H15.1111V2.75H15.5556ZM7.11111 3.975C7.11111 3.8 7.28889 3.625 7.46667 3.625H8.53333C8.71111 3.625 8.88889 3.8 8.88889 3.975V5.025C8.88889 5.2 8.71111 5.375 8.53333 5.375H7.46667C7.28889 5.375 7.11111 5.2 7.11111 5.025V3.975ZM7.11111 6.6C7.11111 6.425 7.28889 6.25 7.46667 6.25H8.53333C8.71111 6.25 8.88889 6.425 8.88889 6.6V7.65C8.88889 7.825 8.71111 8 8.53333 8H7.46667C7.28889 8 7.11111 7.825 7.11111 7.65V6.6ZM3.55556 3.975C3.55556 3.8 3.73333 3.625 3.91111 3.625H4.97778C5.15556 3.625 5.33333 3.8 5.33333 3.975V5.025C5.33333 5.2 5.15556 5.375 4.97778 5.375H3.91111C3.73333 5.375 3.55556 5.2 3.55556 5.025V3.975ZM4.97778 8H3.91111C3.73333 8 3.55556 7.825 3.55556 7.65V6.6C3.55556 6.425 3.73333 6.25 3.91111 6.25H4.97778C5.15556 6.25 5.33333 6.425 5.33333 6.6V7.65C5.33333 7.825 5.15556 8 4.97778 8ZM5.33333 11.5C5.33333 10.0502 6.52722 8.875 8 8.875C9.47278 8.875 10.6667 10.0502 10.6667 11.5H5.33333ZM12.4444 7.65C12.4444 7.825 12.2667 8 12.0889 8H11.0222C10.8444 8 10.6667 7.825 10.6667 7.65V6.6C10.6667 6.425 10.8444 6.25 11.0222 6.25H12.0889C12.2667 6.25 12.4444 6.425 12.4444 6.6V7.65ZM12.4444 5.025C12.4444 5.2 12.2667 5.375 12.0889 5.375H11.0222C10.8444 5.375 10.6667 5.2 10.6667 5.025V3.975C10.6667 3.8 10.8444 3.625 11.0222 3.625H12.0889C12.2667 3.625 12.4444 3.8 12.4444 3.975V5.025Z" fill="#14A800"/>
</svg>
