<svg width="24" height="24" viewBox="0 0 24 24" fill="none" xmlns="http://www.w3.org/2000/svg">
<rect x="0.5" y="0.5" width="23" height="23" stroke="white"/>
<g clip-path="url(#clip0_4_28)">
<path d="M15 6H9C7.32 6 6 7.32 6 9V15C6 16.68 7.32 18 9 18H15C16.68 18 18 16.68 18 15V9C18 7.32 16.68 6 15 6ZM16.8 15C16.8 16.02 16.02 16.8 15 16.8H9C7.98 16.8 7.2 16.02 7.2 15V9C7.2 7.98 7.98 7.2 9 7.2H15C16.02 7.2 16.8 7.98 16.8 9V15Z" fill="white"/>
<path d="M12 9C10.32 9 9 10.32 9 12C9 13.68 10.32 15 12 15C13.68 15 15 13.68 15 12C15 10.32 13.68 9 12 9ZM12 13.8C10.98 13.8 10.2 13.02 10.2 12C10.2 10.98 10.98 10.2 12 10.2C13.02 10.2 13.8 10.98 13.8 12C13.8 13.02 13.02 13.8 12 13.8Z" fill="white"/>
<path d="M15 9.6C15.3314 9.6 15.6 9.33137 15.6 9C15.6 8.66863 15.3314 8.4 15 8.4C14.6686 8.4 14.4 8.66863 14.4 9C14.4 9.33137 14.6686 9.6 15 9.6Z" fill="white"/>
</g>
<defs>
<clipPath id="clip0_4_28">
<rect width="12" height="12" fill="white" transform="translate(6 6)"/>
</clipPath>
</defs>
</svg>
