<svg width="16" height="12" viewBox="0 0 16 12" fill="none" xmlns="http://www.w3.org/2000/svg">
<path d="M8.00012 5.04762L14.795 0.810828C14.7211 0.799116 14.6461 0.791504 14.5693 0.791504H1.43098C1.35412 0.791504 1.27902 0.799409 1.20538 0.810828L8.00012 5.04762Z" fill="white"/>
<path d="M8.42776 6.68576C8.41869 6.69162 8.40873 6.69542 8.39936 6.70099C8.38956 6.7064 8.37901 6.71167 8.36921 6.71665C8.31577 6.74417 8.26073 6.76628 8.20451 6.78092C8.19866 6.78253 8.19309 6.78341 8.18753 6.78458C8.12561 6.79907 8.06339 6.808 8.00102 6.808C8.00088 6.808 8.00059 6.808 8.00044 6.808C8.00029 6.808 8 6.808 7.99971 6.808C7.93734 6.808 7.87498 6.79922 7.81335 6.78458C7.80764 6.78326 7.80178 6.78238 7.79607 6.78092C7.73986 6.76613 7.68525 6.74403 7.63153 6.71665C7.62143 6.71167 7.61118 6.7064 7.60122 6.70099C7.59171 6.69557 7.5819 6.69176 7.57253 6.68576L0.0223983 1.97787C0.00878365 2.05737 0 2.13876 0 2.2225V9.77775C0 10.568 0.640474 11.2086 1.43086 11.2086H14.5691C15.3594 11.2086 16 10.568 16 9.77775V2.2225C16 2.13876 15.9914 2.05751 15.9775 1.97787L8.42776 6.68576Z" fill="white"/>
</svg>
