<svg width="24" height="24" viewBox="0 0 24 24" fill="none" xmlns="http://www.w3.org/2000/svg">
<rect x="0.5" y="0.5" width="23" height="23" stroke="white"/>
<g clip-path="url(#clip0_4_34)">
<path d="M7.73344 6.60935C6.9085 6.60935 6.36914 7.15105 6.36914 7.86303C6.36914 8.55929 6.89243 9.11643 7.70178 9.11643H7.71744C8.55851 9.11643 9.08194 8.55929 9.08194 7.86303C9.06622 7.15105 8.55851 6.60935 7.73344 6.60935V6.60935Z" fill="white"/>
<path d="M6.51169 10.1071H8.92332V17.3626H6.51169V10.1071Z" fill="white"/>
<path d="M14.8428 9.93677C13.5418 9.93677 12.6694 11.1593 12.6694 11.1593V10.1071H10.2577V17.3626H12.6693V13.3108C12.6693 13.0939 12.685 12.8773 12.7487 12.7222C12.923 12.2891 13.3198 11.8404 13.986 11.8404C14.8587 11.8404 15.2077 12.5057 15.2077 13.4811V17.3626H17.6191V13.2024C17.6191 10.9738 16.4293 9.93677 14.8428 9.93677V9.93677Z" fill="white"/>
</g>
<defs>
<clipPath id="clip0_4_34">
<rect width="12" height="12" fill="white" transform="translate(6 6)"/>
</clipPath>
</defs>
</svg>
