<svg width="16" height="16" viewBox="0 0 16 16" fill="none" xmlns="http://www.w3.org/2000/svg">
<g clip-path="url(#clip0_26_2693)">
<path d="M14.6994 0.0472344L4.70031 3.00005C4.49734 3.06381 4.31999 3.19064 4.19405 3.3621C4.0681 3.53357 4.00013 3.74073 4 3.95348V12.1225C3.67255 12.0431 3.33696 12.002 3 12C1.34375 12 0 12.8957 0 14C0 15.1044 1.34375 16 3 16C4.65625 16 6 15.1044 6 14V6.69755L14 4.3538V10.1229C13.6726 10.0431 13.337 10.0019 13 10C11.3438 10 10 10.8957 10 12C10 13.1044 11.3438 14 13 14C14.6562 14 16 13.1047 16 12V1.00005C15.9999 0.84306 15.9627 0.688312 15.8917 0.548328C15.8206 0.408344 15.7176 0.287057 15.591 0.194282C15.4643 0.101508 15.3176 0.0398521 15.1627 0.0143058C15.0078 -0.0112405 14.8491 3.99798e-05 14.6994 0.0472344Z" fill="#14A800"/>
</g>
<defs>
<clipPath id="clip0_26_2693">
<rect width="16" height="16" fill="white"/>
</clipPath>
</defs>
</svg>
