<svg width="16" height="16" viewBox="0 0 16 16" fill="none" xmlns="http://www.w3.org/2000/svg">
<g clip-path="url(#clip0_26_2683)">
<path d="M11.2688 1.90438C11.299 1.9347 11.335 1.95874 11.3745 1.97515C11.4141 1.99156 11.4565 2 11.4994 2C11.5422 2 11.5846 1.99156 11.6242 1.97515C11.6638 1.95874 11.6997 1.9347 11.73 1.90438L12.4041 1.23063C12.4344 1.20036 12.4584 1.16441 12.4748 1.12484C12.4912 1.08527 12.4997 1.04285 12.4997 1.00001C12.4997 0.957171 12.4912 0.914752 12.4748 0.875179C12.4584 0.835607 12.4344 0.799657 12.4041 0.769385L11.7297 0.0956348C11.6022 -0.0315527 11.3959 -0.0315527 11.2684 0.0956348L10.5944 0.769385C10.5641 0.799657 10.54 0.835607 10.5236 0.875179C10.5072 0.914752 10.4988 0.957171 10.4988 1.00001C10.4988 1.04285 10.5072 1.08527 10.5236 1.12484C10.54 1.16441 10.5641 1.20036 10.5944 1.23063L11.2688 1.90438ZM12.8784 6.00001C12.0444 6.00001 11.2606 6.3247 10.6709 6.91407L9.91313 7.67188C9.70125 7.88345 9.42 8.00001 9.12 8.00001H7.65625C7.98563 7.30938 8.09907 6.49657 7.89782 5.64907C7.58219 4.31938 6.44907 3.27063 5.10032 3.04938C3.97063 2.86407 2.88469 3.20688 2.1 3.94876C1.87 4.16626 1.88219 4.53782 2.135 4.72782L2.95219 5.34126C3.13094 5.47563 3.37907 5.47626 3.55219 5.3347C3.81625 5.11907 4.14657 5.00001 4.49813 5.00001C5.32532 5.00001 5.99844 5.67282 5.99844 6.50001C5.99844 7.3272 5.32532 8.00001 4.49813 8.00001H3.50125C3.1275 8.00001 2.88438 8.39313 3.05157 8.72751L3.55438 9.73282C3.63344 9.89095 3.79188 9.98595 3.96594 10H4.99813C6.10125 10 6.99844 10.8969 6.99844 12C6.99844 13.1031 6.10125 14 4.99813 14C1.9975 14 1.17469 12.3119 0.462192 11.1241C0.32063 10.8881 0.000629594 11.0122 4.59412e-06 11.2872C-0.00280791 13 1.28532 16 4.99813 16C7.20407 16 8.99875 14.2056 8.99875 12C8.99875 11.2681 8.78688 10.5906 8.44219 10H9.12C9.95407 10 10.7378 9.67532 11.3275 9.08595L12.0853 8.32813C12.2972 8.11657 12.5784 8.00001 12.8784 8.00001C13.4966 8.00001 13.9997 8.50282 13.9997 9.12126V12.25C13.9997 12.6634 13.4131 13 12.9994 13C11.7681 13 10.9159 12.2425 10.4425 11.6597C10.2934 11.4763 9.99875 11.5803 9.99875 11.8166V13C9.99875 13 9.99876 15 12.9994 15C14.5163 15 16 13.7666 16 12.25V9.12126C16 7.40001 14.6 6.00001 12.8784 6.00001ZM14.1966 2.1022C11.5231 4.1372 8.91375 2.18813 8.80344 2.10376C8.61532 1.95938 8.35219 1.96688 8.17407 2.12095C7.99469 2.2747 7.94688 2.53251 8.05969 2.7397C8.11 2.83188 9.32125 5.00032 11.7722 5.00032C14.2697 5.00032 14.8591 4.02032 14.9519 3.82345C14.9838 3.7572 14.9997 3.68376 14.9997 3.61001V2.50001C14.9997 2.08688 14.5266 1.85345 14.1966 2.1022Z" fill="#14A800"/>
</g>
<defs>
<clipPath id="clip0_26_2683">
<rect width="16" height="16" fill="white"/>
</clipPath>
</defs>
</svg>
