<svg width="16" height="16" viewBox="0 0 16 16" fill="none" xmlns="http://www.w3.org/2000/svg">
<path d="M5.41402 5.41414C6.19496 4.6332 6.19496 3.36664 5.41402 2.5857C4.63308 1.80477 3.36652 1.80477 2.58558 2.5857C1.80464 3.36664 1.80464 4.6332 2.58558 5.41414C3.36683 6.19539 4.63308 6.19539 5.41402 5.41414ZM13.414 10.5857C12.6331 9.80477 11.3665 9.80477 10.5856 10.5857C9.80464 11.3666 9.80464 12.6332 10.5856 13.4141C11.3665 14.1951 12.6331 14.1951 13.414 13.4141C14.1953 12.6332 14.1953 11.367 13.414 10.5857ZM13.3534 3.35352L12.6465 2.64664C12.2559 2.25602 11.6228 2.25602 11.2325 2.64664L2.64652 11.2326C2.25589 11.6232 2.25589 12.2563 2.64652 12.6466L3.35339 13.3535C3.74402 13.7441 4.37714 13.7441 4.76746 13.3535L13.3534 4.76758C13.744 4.37727 13.744 3.74414 13.3534 3.35352Z" fill="#14A800"/>
</svg>
