<svg width="24" height="24" viewBox="0 0 24 24" fill="none" xmlns="http://www.w3.org/2000/svg">
<g clip-path="url(#clip0_26_3257)">
<path d="M11.9803 23.0255C7.77778 23.0259 3.9025 20.6179 2.04647 16.8275C0.168328 12.991 0.736997 8.20612 3.46218 4.92119C6.18441 1.63966 10.6101 0.207785 14.7361 1.2733C15.1905 1.3906 15.4638 1.85429 15.3468 2.30905C15.2295 2.76382 14.7655 3.03668 14.3111 2.9198C10.8209 2.01834 7.07481 3.22964 4.77081 6.0071C2.46553 8.78627 1.98442 12.8345 3.57354 16.0808C5.15672 19.3143 8.64905 21.4207 12.2336 21.3229C15.8178 21.2252 19.0704 19.0452 20.5201 15.7696C21.3715 13.846 21.5516 11.6678 21.0267 9.63587C20.9095 9.18153 21.1827 8.71784 21.6374 8.60012C22.0909 8.48238 22.5555 8.75609 22.6733 9.21086C23.2929 11.6117 23.0808 14.1856 22.0752 16.4578C20.3616 20.3296 16.5165 22.9065 12.2804 23.0221C12.18 23.0242 12.0798 23.0255 11.9803 23.0255Z" fill="#14A800"/>
<path d="M11.9731 14.6258C11.7555 14.6258 11.5379 14.543 11.3721 14.3768C11.0402 14.0449 11.0402 13.5068 11.3721 13.1749L21.5725 2.97453C21.904 2.6426 22.4429 2.6426 22.7744 2.97453C23.1064 3.30648 23.1064 3.84453 22.7744 4.17648L12.5741 14.3768C12.4083 14.5426 12.1908 14.6258 11.9731 14.6258Z" fill="#14A800"/>
<path d="M11.9732 14.626C11.7557 14.626 11.538 14.5431 11.3723 14.377L7.76604 10.7707C7.43411 10.4388 7.43411 9.90071 7.76604 9.56877C8.09755 9.23684 8.63647 9.23684 8.96798 9.56877L12.5742 13.175C12.9062 13.507 12.9062 14.045 12.5742 14.377C12.4085 14.5427 12.1908 14.626 11.9732 14.626Z" fill="#14A800"/>
</g>
<defs>
<clipPath id="clip0_26_3257">
<rect width="24" height="24" fill="white"/>
</clipPath>
</defs>
</svg>
