<svg width="43" height="43" viewBox="0 0 43 43" fill="none" xmlns="http://www.w3.org/2000/svg">
<path d="M26.3845 42.8934C10.6092 44.5363 -4.67063 26.8613 1.33706 12.0102C6.78161 -1.59047 27.7245 -5.77154 38.1696 10.7925C51.0529 31.4019 35.0444 42.002 26.3845 42.8934Z" fill="#1F57C3"/>
<g clip-path="url(#clip0_20_21)">
<path d="M30.8152 18.5281L21.647 27.6943C21.4013 27.9391 21.0035 27.9391 20.7587 27.6943L15.1833 22.0832C14.9386 21.8375 14.9386 21.4382 15.1833 21.194L16.5155 19.8628C16.7612 19.6175 17.159 19.6175 17.4038 19.8628L21.2076 23.6918L28.5933 16.3057C28.838 16.0609 29.2358 16.0609 29.4825 16.3057L30.8147 17.6388C31.0619 17.8841 31.0619 18.2834 30.8152 18.5281Z" fill="#F2F6F9"/>
</g>
<defs>
<clipPath id="clip0_20_21">
<rect width="16" height="16" fill="white" transform="translate(15 14)"/>
</clipPath>
</defs>
</svg>
