<svg width="16" height="16" viewBox="0 0 16 16" fill="none" xmlns="http://www.w3.org/2000/svg">
<g clip-path="url(#clip0_34_1104)">
<path d="M7.99996 16C12.3654 14.3669 15.2586 10.1957 15.2586 5.53478V2.70988C13.762 2.70988 12.5487 1.49662 12.5487 0H7.99996H3.45121C3.45121 1.49662 2.23796 2.70988 0.741333 2.70988V5.53475C0.741333 10.1957 3.63449 14.3669 7.99996 16Z" fill="#14A800"/>
<path d="M8 16C12.3655 14.3669 15.2586 10.1957 15.2586 5.53478V2.70988C13.762 2.70988 12.5487 1.49662 12.5487 0H8C8 0 8 12.4375 8 16Z" fill="#14A800"/>
<path d="M6.98883 10.8214L4.58252 8.41511L5.90833 7.08927L6.98883 8.16977L10.0917 5.06689L11.4175 6.39271L6.98883 10.8214Z" fill="white"/>
<path d="M8 9.81021V7.15858L10.0917 5.06689L11.4175 6.39271L8 9.81021Z" fill="#E6E6E6"/>
</g>
<defs>
<clipPath id="clip0_34_1104">
<rect width="16" height="16" fill="white"/>
</clipPath>
</defs>
</svg>
