<svg width="16" height="16" viewBox="0 0 16 16" fill="none" xmlns="http://www.w3.org/2000/svg">
<g clip-path="url(#clip0_26_3305)">
<path d="M15.0938 9.00905C15.137 8.69065 15.161 8.36745 15.161 8.03785C15.161 4.08268 11.937 0.876281 7.96103 0.876281C7.56582 0.876281 7.17863 0.908281 6.80103 0.970681C6.12583 0.529084 5.32102 0.271484 4.45542 0.271484C2.08102 0.271484 0.159424 2.19628 0.159424 4.56908C0.159424 5.43308 0.413824 6.23468 0.850625 6.90828C0.791424 7.27628 0.761024 7.65388 0.761024 8.03785C0.761024 11.9947 3.98342 15.2011 7.96103 15.2011C8.41061 15.2011 8.84741 15.1579 9.27141 15.0811C9.93061 15.4907 10.7082 15.7291 11.5418 15.7291C13.9162 15.7275 15.8394 13.8027 15.8394 11.4299C15.8394 10.5323 15.5642 9.69865 15.0938 9.00905ZM8.63461 13.3163C6.34662 13.4363 5.27622 12.9291 4.29542 12.0091C3.19942 10.9819 3.63942 9.80905 4.53222 9.74825C5.42342 9.68905 5.95943 10.7595 6.43623 11.0571C6.91143 11.3531 8.72101 12.0299 9.67621 10.9371C10.7162 9.74825 8.98501 9.13225 7.71463 8.94665C5.90183 8.67785 3.61222 7.69708 3.78982 5.76428C3.96742 3.83308 5.43143 2.84268 6.97062 2.70348C8.93221 2.52588 10.2106 3.00108 11.2202 3.86348C12.3882 4.86028 11.7562 5.97388 11.0122 6.06348C10.2714 6.15308 9.43781 4.42508 7.80263 4.39948C6.11783 4.37228 4.97863 6.15308 7.05863 6.65868C9.14021 7.16428 11.369 7.37228 12.1722 9.27465C12.9754 11.1755 10.9242 13.1963 8.63461 13.3163Z" fill="#14A800"/>
</g>
<defs>
<clipPath id="clip0_26_3305">
<rect width="16" height="16" fill="white"/>
</clipPath>
</defs>
</svg>
