<svg width="16" height="16" viewBox="0 0 16 16" fill="none" xmlns="http://www.w3.org/2000/svg">
<g clip-path="url(#clip0_26_2677)">
<path d="M13.9719 3.5001C12.9031 3.51573 12.025 4.3876 12.0031 5.45635C11.9875 6.21573 12.3938 6.88135 13.0031 7.23135V10.7501C13.0031 12.5407 11.4344 14.0001 9.50313 14.0001C7.62813 14.0001 6.09062 12.622 6.00625 10.9001C8.28125 10.4314 10 8.4126 10 6.0001V1.14385C10 0.787603 9.74688 0.478228 9.39688 0.409478L7.43125 0.0157284C7.025 -0.0655216 6.63125 0.196978 6.55 0.603228L6.45 1.09385C6.36875 1.5001 6.63125 1.89385 7.0375 1.9751L7.99687 2.16573V5.95948C7.99687 7.6126 6.67813 8.98135 5.025 8.99698C3.35625 9.0126 1.99688 7.6626 1.99688 5.99698V2.16885L2.95625 1.97823C3.3625 1.89698 3.625 1.50323 3.54375 1.09698L3.44688 0.606353C3.36563 0.200103 2.97187 -0.0623966 2.56562 0.0188534L0.603125 0.406353C0.253125 0.478228 0 0.784478 0 1.14385V6.0001C0 8.41573 1.72188 10.4376 4.00313 10.9001C4.08438 13.7251 6.51875 16.0001 9.5 16.0001C12.5312 16.0001 15 13.6439 15 10.7501V7.23135C15.5969 6.88448 16 6.24073 16 5.5001C16 4.38448 15.0875 3.48448 13.9719 3.5001ZM14 6.0001C13.725 6.0001 13.5 5.7751 13.5 5.5001C13.5 5.2251 13.725 5.0001 14 5.0001C14.275 5.0001 14.5 5.2251 14.5 5.5001C14.5 5.7751 14.275 6.0001 14 6.0001Z" fill="#14A800"/>
</g>
<defs>
<clipPath id="clip0_26_2677">
<rect width="16" height="16" fill="white"/>
</clipPath>
</defs>
</svg>
