<svg width="155" height="49" viewBox="0 0 155 49" fill="none" xmlns="http://www.w3.org/2000/svg">
<g clip-path="url(#clip0_4_38)">
<path d="M56.9549 3.5386V6.72083H56.0945V4.3182H49.5465L49.6131 48.2219H50.9363V49.003H42.5359V48.2249H44.1902V4.3182H37.972V6.72083H37.113V3.5386H56.9549Z" fill="#1F57C3"/>
<path d="M66.6105 27.6332V48.2219H74.9443V46.143H75.8033V49.003H59.5333V48.2249H61.1876V4.3182H59.5333V3.5386H75.8033V6.39563H74.9443V4.31671H66.5379L66.6044 25.5513M66.0267 24.1926H72.2269V22.8294H73.0858V26.2715H72.2269V25.0361H65.9194" fill="#1F57C3"/>
<path d="M87.7756 48.2857C88.6653 48.307 89.5512 48.1639 90.3872 47.864C91.0978 47.5982 91.6779 47.0754 92.0083 46.4028C92.3611 45.7099 92.4821 44.7788 92.3712 43.6097C92.2603 42.4405 91.8525 40.9685 91.1478 39.1935L80.5622 14.6445C80.1189 13.4459 79.8768 12.1846 79.8455 10.9098C79.7855 9.66781 80.0351 8.43017 80.5728 7.30441C81.0961 6.22337 81.9757 5.32301 83.2117 4.60331C84.4477 3.88361 86.1232 3.52673 88.2383 3.53267C90.1326 3.53267 91.6539 3.74897 92.8022 4.18158C93.9505 4.6142 94.7988 5.13392 95.3473 5.74077C95.8987 6.34662 96.1966 6.98515 96.241 7.65634C96.3023 8.25523 96.1745 8.85815 95.875 9.38332C95.5943 9.85777 95.1486 10.2168 94.6199 10.3946C94.0674 10.5926 93.4832 10.4936 92.8672 10.0976C92.1172 9.66596 91.6983 9.22047 91.6106 8.76113C91.5218 8.32937 91.5447 7.88266 91.6771 7.46181C91.8103 7.0493 91.9762 6.64763 92.1731 6.2605C92.3712 5.86996 92.4272 5.51803 92.3379 5.22104C92.2487 4.92405 91.9085 4.68052 91.3142 4.50679C90.7199 4.33305 89.6931 4.23207 88.2383 4.18752C87.3485 4.16505 86.4622 4.30606 85.6252 4.60331C84.9153 4.86968 84.3359 5.3924 84.0056 6.06449C83.6517 6.75746 83.5302 7.68851 83.6411 8.85766C83.752 10.0268 84.1382 11.4989 84.7995 13.2739L95.3851 37.8243H95.4516C95.8981 39.0244 96.1433 40.2877 96.1775 41.5649C96.2377 42.8065 95.988 44.0437 95.4501 45.1689C94.9208 46.2519 94.0392 47.1503 92.8052 47.864C91.5712 48.5778 89.8957 48.9351 87.7786 48.9361C85.8823 48.9361 84.361 48.7193 83.2147 48.2857C82.0684 47.8521 81.2196 47.3329 80.6681 46.728C80.1156 46.1222 79.8177 45.4832 79.7744 44.811C79.7152 44.2143 79.8423 43.614 80.1388 43.0899C80.409 42.6271 80.8452 42.2798 81.3622 42.1158C81.8915 41.9436 82.4868 42.0302 83.1482 42.3757C83.9043 42.8093 84.3156 43.2533 84.4048 43.7121C84.4946 44.1562 84.4718 44.6152 84.3383 45.0486C84.2095 45.4737 84.0436 45.887 83.8423 46.284C83.6442 46.6731 83.5882 47.0265 83.6774 47.3235C83.7667 47.6205 84.1069 47.8655 84.7027 48.0378C85.2985 48.21 86.3193 48.2857 87.7756 48.2857Z" fill="#1F57C3"/>
<path d="M101.47 4.3182V3.5386H109.869V4.3182H108.481L108.546 48.2219H109.869V49.003H101.47V48.2249H103.119V4.3182H101.47Z" fill="#1F57C3"/>
<path d="M125.826 22.0305C125.294 21.5978 124.914 21.0119 124.739 20.3555C124.569 19.7978 124.474 19.2208 124.456 18.6389C124.445 18.1281 124.517 17.6188 124.669 17.1303C124.556 17.1303 124.301 17.353 123.903 17.7985C123.504 18.244 123.07 18.7731 122.601 19.3859C122.132 19.9977 121.67 20.5961 121.215 21.1812C120.761 21.7662 120.419 22.1974 120.192 22.4745C119.877 22.8162 119.527 23.1242 119.147 23.3937C118.914 23.5723 118.644 23.7003 118.357 23.7694C117.872 23.7638 117.39 23.6857 116.928 23.5378C116.431 23.3829 115.957 23.1626 115.52 22.8829C115.085 22.6077 114.696 22.2664 114.37 21.8717C114.042 21.4806 113.815 21.0183 113.707 20.5233C113.707 19.7423 113.729 19.0988 113.772 18.5929C113.823 18.0424 113.915 17.4964 114.049 16.9595C114.356 15.7407 114.735 14.5403 115.183 13.3644C115.685 12.0146 116.262 10.693 116.912 9.4056C117.547 8.13731 118.281 6.91902 119.107 5.76156C119.811 4.73929 120.683 3.83945 121.689 3.09907C121.988 3.10199 122.287 3.12282 122.584 3.16144C122.939 3.20742 123.288 3.28496 123.629 3.39309C123.979 3.50278 124.321 3.63574 124.653 3.79105C124.969 3.93627 125.252 4.14287 125.484 4.39839C125.229 4.67756 124.584 5.61257 123.549 7.20344C122.513 8.7943 121.354 11.0841 120.071 14.0728C119.928 14.3806 119.758 14.8261 119.56 15.4092C119.361 15.9923 119.159 16.6066 118.955 17.252C118.753 17.8955 118.589 18.5236 118.463 19.1364C118.352 19.6179 118.288 20.1086 118.271 20.602C118.26 20.7763 118.297 20.9503 118.378 21.1054C118.433 21.1956 118.497 21.2798 118.571 21.3564C118.997 21.1891 119.537 20.7283 120.192 19.9739C120.846 19.2196 121.753 18.0608 122.914 16.4977C123.198 16.1076 123.532 15.6621 123.916 15.1612C124.3 14.6603 124.691 14.1233 125.088 13.5501C125.485 12.9769 125.862 12.3829 126.219 11.7681C126.562 11.1788 126.855 10.5624 127.093 9.92533C127.207 9.58973 127.359 9.19375 127.547 8.73738C127.75 8.24225 127.98 7.75842 128.237 7.28808C128.521 6.76201 128.835 6.25144 129.176 5.75859C129.54 5.23286 129.962 4.7483 130.434 4.31375C130.835 4.31678 131.236 4.35906 131.629 4.43997C132.038 4.51998 132.442 4.62462 132.838 4.75329C133.184 4.86353 133.519 5.00366 133.839 5.17204C134.081 5.29369 134.298 5.45719 134.481 5.65465C133.971 6.88319 133.401 8.09787 132.773 9.29869C132.145 10.4995 131.564 11.679 131.03 12.8373C130.504 13.9605 130.05 15.1145 129.669 16.2927C129.31 17.3753 129.123 18.5058 129.115 19.6443C129.108 20.1575 129.159 20.6699 129.266 21.1723C129.348 21.5419 129.455 21.9056 129.587 22.2607C129.681 22.5104 129.787 22.7552 129.906 22.9943C129.995 23.1481 130.047 23.3197 130.057 23.4962C130.057 23.5244 130.029 23.566 129.973 23.6224C129.962 23.6347 129.949 23.6447 129.934 23.6518C129.919 23.659 129.903 23.6631 129.886 23.664C129.627 23.6545 129.369 23.6126 129.12 23.5392C128.765 23.4405 128.416 23.3215 128.075 23.1829C127.691 23.0344 127.307 22.8547 126.923 22.6587C126.545 22.4702 126.179 22.2605 125.826 22.0305V22.0305Z" fill="#001E00"/>
<path d="M132.181 36.8161C131.782 36.7032 131.555 36.2845 131.499 35.5598C131.373 35.1363 131.294 34.7006 131.264 34.2605C131.22 33.7586 131.199 33.1854 131.199 32.5439C131.226 31.7338 131.328 30.9277 131.502 30.1353C131.703 29.1147 131.98 27.9629 132.333 26.6799C132.686 25.3969 133.12 24.008 133.634 22.5132C134.144 21.0193 134.714 19.5042 135.344 17.9678C136.112 16.0423 136.781 14.3742 137.349 12.9635C137.918 11.5528 138.394 10.3312 138.778 9.29869C139.162 8.26517 139.475 7.41331 139.716 6.74311C139.957 6.0729 140.149 5.50071 140.292 5.02652C140.439 4.61215 140.61 4.20656 140.805 3.81184C141.042 3.31749 141.305 2.83526 141.593 2.36699C141.895 1.87894 142.201 1.41812 142.511 0.984514C142.756 0.627123 143.041 0.297012 143.359 0C144.325 0.133043 145.271 0.386537 146.172 0.754349C147.052 1.11667 147.593 1.46563 147.791 1.80123C147.272 2.31302 146.816 2.88208 146.43 3.49703C145.917 4.26623 145.42 5.10423 144.938 6.01103C144.456 6.91783 144.015 7.84592 143.614 8.79529C143.263 9.61403 142.964 10.4537 142.719 11.3093C143.051 10.7674 143.421 10.2493 143.828 9.75902C144.282 9.20068 144.979 8.43297 145.918 7.45588C146.805 6.52849 147.801 5.70619 148.883 5.00573C149.806 4.43254 150.608 4.14595 151.292 4.14595C152.373 4.14595 153.261 4.43947 153.958 5.02652C154.295 5.30118 154.565 5.64746 154.746 6.03923C154.927 6.431 155.015 6.85802 155.003 7.28808C155 9.31928 154.654 11.3359 153.979 13.256C153.318 15.1906 152.322 16.9989 151.036 18.6018C150.528 19.2419 149.957 19.8313 149.331 20.3615C148.69 20.9096 148.005 21.4062 147.283 21.8464C146.621 22.2537 145.92 22.5959 145.19 22.8681C144.608 23.1 143.987 23.2277 143.359 23.2452C142.891 23.2561 142.428 23.1481 142.015 22.9319C141.673 22.7642 141.397 22.4922 141.227 22.1568C142.439 21.4292 143.531 20.5255 144.467 19.4765C145.575 18.2571 146.554 16.9307 147.389 15.5176C148.311 13.9737 149.096 12.3552 149.736 10.6797C150.397 8.96814 150.903 7.20262 151.248 5.40369C150.223 5.9272 149.245 6.53681 148.327 7.22571C147.362 7.97731 146.495 8.84204 145.745 9.80059C144.722 11.0301 143.911 12.0201 143.314 12.7705C142.716 13.5209 142.227 14.1643 141.847 14.7009C141.499 15.1739 141.185 15.67 140.908 16.1858C140.666 16.6481 140.402 17.2139 140.118 17.8831C139.721 18.7741 139.259 19.9536 138.733 21.4217C138.207 22.8898 137.666 24.5302 137.112 26.3428C136.557 28.1574 136.003 30.0913 135.448 32.1445C134.894 34.1976 134.359 36.2434 133.844 38.2817C133.53 38.2253 133.26 38.0021 133.033 37.612C132.806 37.3596 132.642 37.1779 132.543 37.067C132.445 36.9559 132.32 36.8698 132.181 36.8161V36.8161Z" fill="#001E00"/>
<path d="M0 6.00212L15.9963 0.224228L31.9926 6.00212L27.8582 7.49597V11.933C27.9623 11.9671 28.0543 12.0294 28.1238 12.1127C28.1933 12.1961 28.2373 12.2971 28.2507 12.404C28.2642 12.5109 28.2465 12.6193 28.1998 12.7168C28.1531 12.8142 28.0792 12.8967 27.9867 12.9546L28.2892 13.7832H27.0537L27.3561 12.9546C27.2637 12.8967 27.1898 12.8142 27.1431 12.7168C27.0963 12.6193 27.0787 12.5109 27.0921 12.404C27.1056 12.2971 27.1496 12.1961 27.2191 12.1127C27.2885 12.0294 27.3806 11.9671 27.4847 11.933V5.69623L27.2987 7.69198L25.1256 8.47752V15.3884H6.86248V9.14128L15.9963 11.7815L0 6.00212Z" fill="#001E00"/>
<path d="M10.5825 22.2711H9.52399V21.4544V20.9347V19.6725H15.9963V17.647H6.9895V30.9907L15.9963 49V21.4544H10.5825V22.2711Z" fill="#FFD546"/>
<path d="M15.9963 17.647V19.6725H24.495V20.9347V21.4544V22.2711H23.4365V21.4544H17.9607V45.0708L25.0031 30.9907V17.647H15.9963Z" fill="#001E00"/>
</g>
<defs>
<clipPath id="clip0_4_38">
<rect width="155" height="49" fill="white"/>
</clipPath>
</defs>
</svg>
