<svg width="16" height="16" viewBox="0 0 16 16" fill="none" xmlns="http://www.w3.org/2000/svg">
<path d="M5.17152 7.74564C4.27453 7.99056 3.67278 8.71125 3.73328 9.48234C4.01828 9.18421 4.45353 8.92687 4.98077 8.75766L5.17152 7.74564ZM2.39529 8.91398L1.60205 4.70677C1.5948 4.6688 1.60905 4.64536 1.60805 4.64466C3.05204 3.89326 4.68602 3.496 6.33326 3.496C6.37351 3.496 6.41401 3.49998 6.45451 3.50045C6.80326 3.18475 7.24776 2.96538 7.74425 2.89108C8.2165 2.8203 8.6955 2.78444 9.17374 2.7664C8.92399 2.43945 8.56175 2.19851 8.1295 2.13359C7.53175 2.0443 6.93101 2 6.33301 2C4.41653 2 2.52554 2.45515 0.830054 3.33733C0.225808 3.65186 -0.0979393 4.3081 0.0263098 4.96668L0.819554 9.1739C1.1753 11.0611 4.22778 12.5039 5.93077 12.5039C6.02051 12.5039 6.09951 12.4931 6.18101 12.4851C5.84302 12.0848 5.45752 11.5364 5.19352 10.9012C4.00328 10.597 2.54204 9.6914 2.39529 8.91398ZM4.83402 5.6923C4.81577 5.59574 4.77827 5.50785 4.73227 5.42512C4.52603 5.63394 4.21553 5.79425 3.84928 5.85449C3.48303 5.91496 3.13254 5.86386 2.86229 5.73332C2.84929 5.82566 2.84629 5.92035 2.86454 6.01691C2.96054 6.52549 3.47903 6.8651 4.02303 6.77557C4.56678 6.68604 4.93002 6.20089 4.83402 5.6923ZM15.1699 4.83356C12.9455 3.67623 10.3842 3.25366 7.8705 3.63006C7.18776 3.73225 6.64351 4.24552 6.51951 4.90411L5.72627 9.11132C5.34152 11.1515 8.10825 13.7113 9.68399 13.971C11.2597 14.231 14.7957 12.7103 15.1804 10.6701L15.9737 6.46292C16.0979 5.8041 15.7742 5.14785 15.1699 4.83356ZM8.339 7.10228C8.435 6.5937 8.95349 6.25409 9.49749 6.34386C10.0415 6.43362 10.4045 6.91854 10.3087 7.42712C10.2905 7.52369 10.253 7.61158 10.207 7.69431C10.0007 7.48548 9.69024 7.32517 9.32399 7.26494C8.95774 7.20447 8.60725 7.25556 8.337 7.38611C8.32375 7.29353 8.32075 7.19885 8.339 7.10228ZM10.1007 11.7607C8.70875 11.5312 7.76275 10.3715 7.87475 9.11461C8.38975 9.71319 9.27999 10.1967 10.362 10.3751C11.444 10.5534 12.4575 10.3837 13.1602 9.986C12.8057 11.2033 11.4925 11.9901 10.1007 11.7607ZM13.3582 8.21368C13.152 8.00485 12.8412 7.84454 12.475 7.78431C12.1087 7.72384 11.7582 7.77493 11.488 7.90548C11.475 7.81314 11.472 7.71845 11.4902 7.62189C11.5862 7.1133 12.1047 6.77369 12.6487 6.86322C13.1925 6.95299 13.5557 7.43791 13.46 7.94649C13.4417 8.04329 13.4042 8.13118 13.3582 8.21368Z" fill="#14A800"/>
</svg>
