<svg width="16" height="16" viewBox="0 0 16 16" fill="none" xmlns="http://www.w3.org/2000/svg">
<path d="M8.00125 10.5894L8.44425 9.89469H7.55775L8.00125 10.5894ZM10.4815 6.69875H9.56L10.0215 7.42109L10.4815 6.69875ZM1.2 2C0.53725 2 0 2.33586 0 2.75V13.25C0 13.6641 0.53725 14 1.2 14C1.86275 14 2.4 13.6641 2.4 13.25V2.75C2.4 2.33586 1.86275 2 1.2 2ZM5.5185 9.30078H6.43975L5.97825 8.57844L5.5185 9.30078ZM9.56125 9.30078H10.4827L10.0215 8.57891L9.56125 9.30078ZM3.2 12.875H12.8V3.125H3.2V12.875ZM4.86925 6.35633C4.91571 6.27993 4.98295 6.21645 5.06411 6.17235C5.14527 6.12826 5.23745 6.10512 5.33125 6.10531H6.8175L7.54575 4.96367C7.59256 4.88951 7.6592 4.82808 7.73908 4.78545C7.81897 4.74283 7.90933 4.72048 8.00125 4.72062C8.09182 4.72034 8.18089 4.74227 8.25961 4.78425C8.33834 4.82623 8.40397 4.8868 8.45 4.95992L9.18125 6.10508H10.6692C10.7627 6.10509 10.8545 6.12835 10.9352 6.1725C11.016 6.21666 11.0828 6.28011 11.1288 6.35638C11.1748 6.43265 11.1984 6.519 11.1972 6.60662C11.1959 6.69423 11.1699 6.77997 11.1217 6.85508L10.3907 8L11.125 9.14844C11.1733 9.22283 11.1994 9.30806 11.2004 9.39517C11.2015 9.48227 11.1775 9.56803 11.131 9.64344C11.0845 9.71983 11.0173 9.78332 10.9361 9.82745C10.855 9.87158 10.7628 9.89478 10.669 9.89469H9.18225L8.454 11.0361C8.40742 11.1102 8.34105 11.1716 8.26145 11.2144C8.18184 11.2571 8.09174 11.2797 8 11.2798C7.90921 11.2802 7.81989 11.2583 7.74094 11.2163C7.66199 11.1743 7.59616 11.1136 7.55 11.0403L6.81875 9.89469H5.33125C5.23775 9.89475 5.14592 9.87153 5.06513 9.8274C4.98435 9.78326 4.91753 9.7198 4.8715 9.64351C4.82547 9.56721 4.80188 9.48082 4.80316 9.39318C4.80443 9.30553 4.83052 9.21978 4.87875 9.14469L5.609 8L4.875 6.85156C4.82668 6.77711 4.80065 6.69183 4.79964 6.60468C4.79863 6.51754 4.82268 6.43175 4.86925 6.35633ZM14.8 2C14.1372 2 13.6 2.33586 13.6 2.75V13.25C13.6 13.6641 14.1372 14 14.8 14C15.4628 14 16 13.6641 16 13.25V2.75C16 2.33586 15.4628 2 14.8 2ZM8 5.41086L7.5555 6.10508H8.442L8 5.41086ZM6.43875 6.69992H5.5185L5.9795 7.4218L6.43875 6.69992ZM7.17825 9.30148H8.823L9.65225 8L8.8215 6.69875H7.17675L6.3475 8L7.17825 9.30148Z" fill="#14A800"/>
</svg>
