<svg width="16" height="16" viewBox="0 0 16 16" fill="none" xmlns="http://www.w3.org/2000/svg">
<path d="M13.2002 9.875C11.9852 9.875 11.0002 10.7984 11.0002 11.9375C11.0002 13.0766 11.9852 14 13.2002 14C14.4152 14 15.4002 13.0766 15.4002 11.9375C15.4002 10.7984 14.4152 9.875 13.2002 9.875ZM13.2002 12.5C12.8695 12.5 12.6002 12.2476 12.6002 11.9375C12.6002 11.6274 12.8695 11.375 13.2002 11.375C13.531 11.375 13.8002 11.6274 13.8002 11.9375C13.8002 12.2476 13.531 12.5 13.2002 12.5ZM15.2002 5.75H13.6002V4.80781C13.6002 4.47688 13.7177 4.15719 13.929 3.8975C14.0395 3.76156 14.0177 3.56797 13.896 3.4407L13.3552 2.87422C13.1887 2.69961 12.8972 2.71203 12.7377 2.8925C12.2647 3.42734 12.0002 4.10492 12.0002 4.80781V5.75H9.4419L8.03963 2.68297C7.94751 2.4802 7.79378 2.30732 7.5976 2.18587C7.40142 2.06442 7.17145 1.99978 6.93636 2H3.60006C2.9383 2 2.40004 2.50461 2.40004 3.125V6.55906C2.18428 6.40133 1.87603 6.40766 1.67778 6.59352L0.900014 7.32266C0.685261 7.52399 0.685261 7.85047 0.900014 8.0518L1.02652 8.17039C0.901764 8.38742 0.802513 8.61149 0.728761 8.84352H0.550009C0.246254 8.84352 0 9.07438 0 9.35914V10.3904C0 10.6752 0.246254 10.906 0.550009 10.906H0.728511C0.802513 11.1383 0.901514 11.3621 1.02627 11.5794L0.899764 11.698C0.685011 11.8993 0.685011 12.2258 0.899764 12.4271L1.67753 13.1563C1.89228 13.3576 2.24054 13.3576 2.45529 13.1563L2.58179 13.0377C2.81329 13.1546 3.0523 13.2477 3.2998 13.3168V13.4844C3.2998 13.7691 3.54606 14 3.84981 14H4.94983C5.25358 14 5.49984 13.7691 5.49984 13.4844V13.317C5.74734 13.2479 5.98634 13.1548 6.21785 13.0379L6.34435 13.1565C6.5591 13.3578 6.90736 13.3578 7.12211 13.1565L7.89987 12.4273C8.11463 12.226 8.11463 11.8995 7.89987 11.6982L7.77337 11.5796C7.89812 11.3626 7.99738 11.1385 8.07113 10.9065H8.25013C8.55388 10.9065 8.80014 10.6756 8.80014 10.3909V10.2502H10.8137C11.3614 9.57078 12.2217 9.12524 13.2002 9.12524C13.6662 9.12524 14.102 9.23328 14.4952 9.41117L15.7657 8.22008C15.9157 8.07945 16 7.88867 16 7.68969V6.5C16.0002 6.08586 15.642 5.75 15.2002 5.75ZM4.40007 11.75C3.29555 11.75 2.40004 10.9105 2.40004 9.875C2.40004 8.83953 3.29555 8 4.40007 8C5.50459 8 6.4001 8.83953 6.4001 9.875C6.4001 10.9105 5.50459 11.75 4.40007 11.75ZM4.95008 5.75H4.00006V3.5H6.67235L7.70112 5.75H4.95008Z" fill="#14A800"/>
</svg>
