<svg width="16" height="16" viewBox="0 0 16 16" fill="none" xmlns="http://www.w3.org/2000/svg">
<g clip-path="url(#clip0_2_2)">
<path d="M8.1424 0.159598C3.89117 0.159598 0.444769 3.5788 0.444769 7.79802C0.444769 9.24122 0.847968 10.59 1.54877 11.742L0.159969 15.8396L4.42237 14.486C5.52477 15.0908 6.79357 15.4364 8.1424 15.4364C12.3936 15.4364 15.84 12.0156 15.84 7.79802C15.84 3.5788 12.3936 0.159598 8.1424 0.159598ZM11.9696 10.6988C11.7888 11.1484 10.9696 11.558 10.608 11.5756C10.2464 11.5948 10.2368 11.8556 8.2688 11.0012C6.30077 10.1468 5.11677 8.06682 5.02397 7.93242C4.93117 7.79962 4.26237 6.846 4.29757 5.886C4.33437 4.926 4.85917 4.4732 5.04637 4.286C5.23357 4.0972 5.44797 4.0636 5.57917 4.062C5.73437 4.0588 5.83517 4.0572 5.94877 4.062C6.06397 4.0668 6.23517 4.038 6.38397 4.4348C6.53277 4.8316 6.88957 5.8044 6.93437 5.9052C6.97917 6.0044 7.00797 6.1196 6.93757 6.2476C6.86717 6.3756 6.83037 6.4556 6.72957 6.566C6.62717 6.6764 6.51357 6.8124 6.42237 6.8972C6.31997 6.99 6.21277 7.0924 6.32157 7.2924C6.42877 7.4924 6.79997 8.14522 7.36317 8.68282C8.088 9.37402 8.7136 9.60442 8.9072 9.70842C9.1008 9.81402 9.216 9.80122 9.3344 9.67642C9.4528 9.55002 9.8464 9.12602 9.9856 8.93562C10.1248 8.74522 10.2544 8.78202 10.432 8.85402C10.6096 8.92602 11.5568 9.43322 11.7504 9.53882C11.944 9.64282 12.072 9.69722 12.1184 9.78042C12.1648 9.85882 12.1504 10.2492 11.9696 10.6988Z" fill="white"/>
</g>
<defs>
<clipPath id="clip0_2_2">
<rect width="16" height="16" fill="white"/>
</clipPath>
</defs>
</svg>
