<svg width="24" height="24" viewBox="0 0 24 24" fill="none" xmlns="http://www.w3.org/2000/svg">
<g clip-path="url(#clip0_26_3261)">
<path d="M15.8344 16.7423C15.5993 16.7423 15.3641 16.6527 15.185 16.4731L7.39109 8.67919C7.0324 8.32049 7.0324 7.73904 7.39109 7.38035C7.74933 7.02165 8.33169 7.02165 8.68993 7.38035L16.4843 15.1747C16.843 15.5334 16.843 16.1149 16.4843 16.4736C16.3047 16.6527 16.0696 16.7423 15.8344 16.7423Z" fill="#EB001B"/>
<path d="M8.04051 16.7427C7.80536 16.7427 7.57021 16.6532 7.39109 16.4736C7.0324 16.1149 7.0324 15.5334 7.39109 15.1747L15.1855 7.38035C15.5437 7.02165 16.1261 7.02165 16.4843 7.38035C16.843 7.73904 16.843 8.32049 16.4843 8.67918L8.68993 16.4736C8.51081 16.6532 8.2752 16.7427 8.04051 16.7427Z" fill="#EB001B"/>
<path d="M11.9073 23.8645C11.9068 23.8645 11.9068 23.8645 11.9073 23.8645C10.8624 23.8645 9.82673 23.7281 8.82872 23.4599C4.52806 22.3034 1.16018 18.7403 0.248971 14.3832C-0.679228 9.94427 1.03433 5.27801 4.6144 2.49525C6.68344 0.886405 9.29351 0 11.9637 0C13.8123 0 15.6485 0.429883 17.2734 1.24234C21.2862 3.24984 23.8788 7.44396 23.8788 11.9279C23.8788 15.5865 22.1523 19.1128 19.2603 21.3605C17.1839 22.9753 14.572 23.8645 11.9073 23.8645ZM11.9642 1.83711C9.70043 1.83711 7.49085 2.58619 5.74238 3.94565C2.71207 6.30082 1.26168 10.2501 2.0475 14.007C2.81863 17.6927 5.66752 20.707 9.30591 21.6857C10.1482 21.9126 11.0236 22.0274 11.9068 22.0274C14.1655 22.0274 16.3769 21.2755 18.1332 19.9101C20.5802 18.0073 22.0417 15.0234 22.0417 11.9279C22.0417 8.13334 19.8477 4.5845 16.4518 2.88564C15.0809 2.19994 13.529 1.83711 11.9642 1.83711Z" fill="#EB001B"/>
</g>
<defs>
<clipPath id="clip0_26_3261">
<rect width="24" height="24" fill="white"/>
</clipPath>
</defs>
</svg>
